<svg xmlns="http://www.w3.org/2000/svg" xmlns:xlink="http://www.w3.org/1999/xlink" width="300" zoomAndPan="magnify" viewBox="0 0 224.87999 225" height="300" preserveAspectRatio="xMidYMid meet" version="1.0"><defs><clipPath id="7642f51ba7"><path d="M 62 143 L 153 143 L 153 198.6875 L 62 198.6875 Z M 62 143 " clip-rule="nonzero"/></clipPath><clipPath id="e7ac478a64"><path d="M 98 26.277344 L 126 26.277344 L 126 47 L 98 47 Z M 98 26.277344 " clip-rule="nonzero"/></clipPath></defs><g clip-path="url(#7642f51ba7)"><path fill="#232928" d="M 62.089844 198.410156 C 68.171875 176.429688 77.589844 158.714844 88.382812 143.910156 C 103.09375 148.394531 118.890625 147.984375 135.316406 147.40625 C 146.738281 161.140625 152.5625 178.039062 152.035156 198.6875 L 62.089844 198.410156 " fill-opacity="1" fill-rule="evenodd"/></g><g clip-path="url(#e7ac478a64)"><path fill="#232928" d="M 125.375 42.226562 C 123.8125 40.035156 119.40625 38.5625 119.40625 38.5625 C 123.175781 33.34375 119.796875 27.113281 113.355469 26.710938 C 106.464844 26.28125 102.210938 32.699219 105.914062 38.304688 C 105.914062 38.304688 101.1875 39.617188 98.183594 42.089844 L 112.589844 46.59375 L 125.375 42.226562 " fill-opacity="1" fill-rule="evenodd"/></g><path fill="#f9b29b" d="M 122.882812 81.15625 C 117.125 84.8125 110.804688 85.757812 103.394531 81.429688 C 103.527344 76.75 103.460938 75.644531 103.460938 75.644531 C 95.648438 70.757812 103.191406 56.140625 103.582031 47.519531 L 122.90625 47.390625 C 122.871094 58.675781 122.726562 70.109375 122.882812 81.15625 " fill-opacity="1" fill-rule="evenodd"/><path fill="#b96c50" d="M 110.578125 65.625 C 112.902344 66.113281 113.484375 67.609375 113.496094 68.585938 C 113.519531 70.40625 111.644531 71.589844 109.519531 71.195312 C 107.1875 70.757812 106.242188 68.4375 106.976562 68.027344 C 108.402344 67.234375 108.980469 65.632812 108.980469 65.632812 C 109.355469 65.496094 109.855469 65.476562 110.578125 65.625 " fill-opacity="1" fill-rule="evenodd"/><path fill="#f9b29b" d="M 136.394531 138.757812 L 135.316406 147.40625 C 119.488281 148.539062 102.03125 148.132812 88.382812 143.910156 L 88.175781 139.3125 L 136.394531 138.757812 " fill-opacity="1" fill-rule="evenodd"/><path fill="#fd7f42" d="M 146.605469 86.84375 L 136.273438 139.734375 C 120.980469 141.871094 103.808594 141.496094 88.257812 140.160156 C 83.816406 118.894531 81.4375 103.0625 76.09375 85.960938 L 102.074219 83.640625 L 103.414062 80.730469 C 109.625 83.910156 116.125 83.878906 122.871094 80.589844 C 123.449219 81.835938 123.816406 82.609375 124.46875 83.628906 L 146.605469 86.84375 " fill-opacity="1" fill-rule="evenodd"/><path fill="#f9b29b" d="M 133.425781 43.855469 C 132.15625 41.59375 134.257812 39.546875 136.53125 41.269531 C 136.007812 38.726562 138.878906 39.167969 140.828125 41.007812 C 147.894531 47.679688 150.308594 57.816406 148.359375 69.226562 C 148.113281 70.667969 163.972656 103.546875 169.570312 124.136719 C 172.78125 135.949219 170.976562 141.910156 163.917969 145.136719 C 158.953125 147.40625 152.503906 145.929688 147.617188 138.714844 C 140.734375 128.554688 135.503906 100.179688 130.300781 81.03125 C 126.179688 78.683594 120.132812 70.449219 118.203125 67.390625 L 132.8125 61.871094 L 133.425781 43.855469 " fill-opacity="1" fill-rule="evenodd"/><path fill="#f9b29b" d="M 89.882812 42.675781 C 91.089844 40.386719 88.558594 38.734375 86.316406 40.847656 C 86.773438 38.289062 84.316406 38.488281 82.03125 40.847656 C 75.320312 47.789062 73.808594 56.949219 76.167969 68.761719 C 76.457031 70.191406 64.648438 97.378906 55.527344 124.542969 C 52.25 134.304688 56.035156 143.933594 61.640625 145.972656 C 66.921875 147.890625 73.855469 145.726562 77.5 138.335938 C 81.785156 129.648438 87.851562 99.527344 93.320312 80.585938 C 97.328125 78.144531 103.636719 70.589844 105.472656 67.492188 L 99.113281 57.023438 L 89.882812 42.675781 " fill-opacity="1" fill-rule="evenodd"/><path fill="#ffffff" d="M 120.707031 44.28125 C 115.886719 40.476562 108.304688 40.421875 102.929688 44.136719 L 107.152344 50.074219 C 110.085938 49.539062 112.945312 49.53125 115.707031 50.222656 L 120.707031 44.28125 " fill-opacity="1" fill-rule="evenodd"/><path fill="#232928" d="M 111.25 49.476562 C 112.765625 49.476562 114.21875 49.648438 115.632812 49.992188 L 120.410156 44.3125 C 118.136719 42.582031 115.167969 41.617188 112.027344 41.59375 C 111.984375 41.59375 111.945312 41.59375 111.902344 41.59375 C 108.792969 41.59375 105.722656 42.511719 103.21875 44.1875 L 107.246094 49.847656 C 108.636719 49.601562 109.964844 49.476562 111.25 49.476562 Z M 115.707031 50.425781 C 115.691406 50.425781 115.675781 50.425781 115.660156 50.421875 C 113.03125 49.761719 110.257812 49.714844 107.191406 50.273438 C 107.113281 50.289062 107.03125 50.257812 106.984375 50.191406 L 102.761719 44.253906 C 102.730469 44.210938 102.71875 44.15625 102.726562 44.101562 C 102.738281 44.046875 102.769531 44 102.8125 43.96875 C 105.449219 42.148438 108.722656 41.15625 112.027344 41.183594 C 115.339844 41.210938 118.46875 42.25 120.832031 44.117188 C 120.875 44.152344 120.902344 44.203125 120.910156 44.257812 C 120.914062 44.316406 120.898438 44.371094 120.863281 44.410156 L 115.867188 50.351562 C 115.824219 50.402344 115.769531 50.425781 115.707031 50.425781 " fill-opacity="1" fill-rule="nonzero"/><path fill="#ffffff" d="M 127.441406 41.496094 C 119.699219 41.496094 113.417969 47.746094 113.417969 55.445312 C 113.417969 63.144531 119.699219 69.394531 127.441406 69.394531 C 135.183594 69.394531 141.46875 63.144531 141.46875 55.445312 C 141.46875 47.746094 135.183594 41.496094 127.441406 41.496094 " fill-opacity="1" fill-rule="evenodd"/><path fill="#232928" d="M 127.441406 41.699219 C 119.824219 41.699219 113.621094 47.867188 113.621094 55.445312 C 113.621094 63.027344 119.824219 69.191406 127.441406 69.191406 C 135.0625 69.191406 141.265625 63.027344 141.265625 55.445312 C 141.265625 47.867188 135.0625 41.699219 127.441406 41.699219 Z M 127.441406 69.601562 C 119.59375 69.601562 113.210938 63.25 113.210938 55.445312 C 113.210938 47.640625 119.59375 41.292969 127.441406 41.292969 C 135.289062 41.292969 141.675781 47.640625 141.675781 55.445312 C 141.675781 63.25 135.289062 69.601562 127.441406 69.601562 " fill-opacity="1" fill-rule="nonzero"/><path fill="#ffffff" d="M 96.203125 40.734375 C 88.460938 40.734375 82.175781 46.984375 82.175781 54.683594 C 82.175781 62.382812 88.460938 68.636719 96.203125 68.636719 C 103.945312 68.636719 110.230469 62.382812 110.230469 54.683594 C 110.230469 46.984375 103.945312 40.734375 96.203125 40.734375 " fill-opacity="1" fill-rule="evenodd"/><path fill="#232928" d="M 96.203125 40.9375 C 88.582031 40.9375 82.382812 47.105469 82.382812 54.683594 C 82.382812 62.265625 88.582031 68.429688 96.203125 68.429688 C 103.824219 68.429688 110.023438 62.265625 110.023438 54.683594 C 110.023438 47.105469 103.824219 40.9375 96.203125 40.9375 Z M 96.203125 68.839844 C 88.355469 68.839844 81.972656 62.492188 81.972656 54.683594 C 81.972656 46.878906 88.355469 40.527344 96.203125 40.527344 C 104.050781 40.527344 110.433594 46.878906 110.433594 54.683594 C 110.433594 62.492188 104.050781 68.839844 96.203125 68.839844 " fill-opacity="1" fill-rule="nonzero"/><path fill="#f9b29b" d="M 127.371094 45.113281 C 121.695312 45.113281 117.085938 49.691406 117.085938 55.335938 C 117.085938 60.972656 121.695312 65.554688 127.371094 65.554688 C 133.050781 65.554688 137.660156 60.972656 137.660156 55.335938 C 137.660156 49.691406 133.050781 45.113281 127.371094 45.113281 " fill-opacity="1" fill-rule="evenodd"/><path fill="#232928" d="M 127.371094 45.320312 C 121.8125 45.320312 117.292969 49.8125 117.292969 55.335938 C 117.292969 60.855469 121.8125 65.347656 127.371094 65.347656 C 132.929688 65.347656 137.453125 60.855469 137.453125 55.335938 C 137.453125 49.8125 132.929688 45.320312 127.371094 45.320312 Z M 127.371094 65.757812 C 121.585938 65.757812 116.878906 61.082031 116.878906 55.335938 C 116.878906 49.585938 121.585938 44.910156 127.371094 44.910156 C 133.15625 44.910156 137.863281 49.585938 137.863281 55.335938 C 137.863281 61.082031 133.15625 65.757812 127.371094 65.757812 " fill-opacity="1" fill-rule="nonzero"/><path fill="#f9b29b" d="M 96.167969 44.542969 C 90.492188 44.542969 85.882812 49.125 85.882812 54.761719 C 85.882812 60.402344 90.492188 64.980469 96.167969 64.980469 C 101.84375 64.980469 106.453125 60.402344 106.453125 54.761719 C 106.453125 49.125 101.84375 44.542969 96.167969 44.542969 " fill-opacity="1" fill-rule="evenodd"/><path fill="#232928" d="M 96.167969 44.75 C 90.609375 44.75 86.085938 49.242188 86.085938 54.761719 C 86.085938 60.285156 90.609375 64.777344 96.167969 64.777344 C 101.726562 64.777344 106.25 60.285156 106.25 54.761719 C 106.25 49.242188 101.726562 44.75 96.167969 44.75 Z M 96.167969 65.1875 C 90.382812 65.1875 85.675781 60.511719 85.675781 54.761719 C 85.675781 49.015625 90.382812 44.339844 96.167969 44.339844 C 101.953125 44.339844 106.660156 49.015625 106.660156 54.761719 C 106.660156 60.511719 101.953125 65.1875 96.167969 65.1875 " fill-opacity="1" fill-rule="nonzero"/><path fill="#ffffff" d="M 134.988281 55.574219 C 134.503906 58.714844 130.769531 61.117188 127.3125 61.210938 C 123.46875 61.3125 120.523438 58.234375 119.472656 55.441406 C 121.574219 52.46875 124.496094 50.421875 127.367188 50.386719 C 130.320312 50.351562 133.21875 52.421875 134.988281 55.574219 " fill-opacity="1" fill-rule="evenodd"/><path fill="#ffffff" d="M 103.785156 55.003906 C 103.300781 58.140625 99.5625 60.550781 96.109375 60.640625 C 92.265625 60.738281 89.320312 57.664062 88.265625 54.871094 C 90.3125 51.980469 93.097656 49.996094 95.890625 49.882812 C 98.929688 49.761719 101.96875 51.765625 103.785156 55.003906 " fill-opacity="1" fill-rule="evenodd"/><path fill="#7083ef" d="M 127.40625 50.523438 C 124.640625 50.523438 122.394531 52.738281 122.394531 55.460938 C 122.394531 58.1875 124.640625 60.402344 127.40625 60.402344 C 130.171875 60.402344 132.417969 58.1875 132.417969 55.460938 C 132.417969 52.738281 130.171875 50.523438 127.40625 50.523438 " fill-opacity="1" fill-rule="evenodd"/><path fill="#7083ef" d="M 96.203125 49.953125 C 93.4375 49.953125 91.191406 52.164062 91.191406 54.890625 C 91.191406 57.617188 93.4375 59.832031 96.203125 59.832031 C 98.96875 59.832031 101.214844 57.617188 101.214844 54.890625 C 101.214844 52.164062 98.96875 49.953125 96.203125 49.953125 " fill-opacity="1" fill-rule="evenodd"/><path fill="#232928" d="M 127.441406 53.433594 C 126.351562 53.433594 125.46875 54.324219 125.46875 55.425781 C 125.46875 56.523438 126.351562 57.417969 127.441406 57.417969 C 128.527344 57.417969 129.410156 56.523438 129.410156 55.425781 C 129.410156 54.324219 128.527344 53.433594 127.441406 53.433594 " fill-opacity="1" fill-rule="evenodd"/><path fill="#232928" d="M 96.234375 52.859375 C 95.148438 52.859375 94.265625 53.753906 94.265625 54.855469 C 94.265625 55.953125 95.148438 56.847656 96.234375 56.847656 C 97.324219 56.847656 98.207031 55.953125 98.207031 54.855469 C 98.207031 53.753906 97.324219 52.859375 96.234375 52.859375 " fill-opacity="1" fill-rule="evenodd"/><path fill="#232928" d="M 122.851562 78.371094 C 113.691406 80.558594 109.113281 78.796875 109.113281 78.796875 C 117.097656 78.648438 120.382812 77.195312 122.523438 73.984375 C 122.605469 73.859375 122.882812 73.882812 122.878906 74.136719 C 122.875 74.671875 122.863281 75.351562 122.855469 76.8125 C 122.851562 77.695312 122.851562 78.371094 122.851562 78.371094 " fill-opacity="1" fill-rule="evenodd"/><path fill="#232928" d="M 111.234375 63.578125 C 111.140625 63.578125 111.054688 63.511719 111.035156 63.417969 C 111.011719 63.304688 111.082031 63.195312 111.195312 63.171875 C 112.382812 62.925781 113.09375 62.496094 113.199219 61.96875 C 113.3125 61.429688 112.808594 60.726562 111.824219 60.046875 C 111.730469 59.980469 111.707031 59.851562 111.769531 59.757812 C 111.835938 59.667969 111.964844 59.640625 112.058594 59.707031 C 113.199219 60.5 113.75 61.328125 113.605469 62.050781 C 113.457031 62.769531 112.675781 63.285156 111.277344 63.574219 C 111.265625 63.578125 111.25 63.578125 111.234375 63.578125 " fill-opacity="1" fill-rule="nonzero"/><path fill="#232928" d="M 113.9375 69.894531 C 111.375 69.894531 108.5625 68.875 108.019531 67.191406 C 107.984375 67.085938 108.042969 66.96875 108.152344 66.933594 C 108.257812 66.898438 108.375 66.957031 108.410156 67.066406 C 108.65625 67.832031 109.558594 68.535156 110.875 68.984375 C 112.136719 69.417969 113.664062 69.582031 114.957031 69.421875 C 115.070312 69.410156 115.171875 69.488281 115.183594 69.601562 C 115.199219 69.714844 115.117188 69.816406 115.007812 69.832031 C 114.660156 69.871094 114.300781 69.894531 113.9375 69.894531 " fill-opacity="1" fill-rule="nonzero"/><path fill="#232928" d="M 122.523438 73.023438 C 122.484375 73.023438 122.441406 73.011719 122.410156 72.988281 C 121.792969 72.574219 121.230469 72.207031 120.6875 71.855469 C 119.257812 70.925781 117.910156 70.046875 115.816406 68.429688 C 114.171875 67.160156 113.816406 65.632812 114.3125 64.777344 C 114.746094 64.023438 115.710938 63.867188 116.890625 64.351562 C 116.996094 64.394531 117.046875 64.515625 117.003906 64.621094 C 116.960938 64.722656 116.839844 64.773438 116.734375 64.730469 C 115.761719 64.332031 114.992188 64.425781 114.667969 64.980469 C 114.269531 65.667969 114.625 66.992188 116.066406 68.105469 C 118.148438 69.710938 119.492188 70.585938 120.914062 71.511719 C 121.457031 71.863281 122.019531 72.230469 122.636719 72.648438 C 122.734375 72.710938 122.757812 72.839844 122.695312 72.933594 C 122.652344 72.992188 122.589844 73.023438 122.523438 73.023438 " fill-opacity="1" fill-rule="nonzero"/><path fill="#232928" d="M 101.40625 72.996094 C 101.339844 72.996094 101.28125 72.964844 101.238281 72.910156 C 101.171875 72.820312 101.191406 72.691406 101.28125 72.625 C 102.21875 71.929688 103.363281 70.945312 104.472656 69.996094 C 105.460938 69.148438 106.390625 68.347656 107.1875 67.734375 C 108.332031 66.855469 109.234375 65.386719 108.648438 64.40625 C 108.339844 63.882812 107.6875 63.78125 106.898438 64.125 C 106.796875 64.171875 106.675781 64.125 106.628906 64.019531 C 106.582031 63.917969 106.628906 63.796875 106.734375 63.75 C 107.90625 63.234375 108.671875 63.640625 109.003906 64.195312 C 109.542969 65.101562 109.179688 66.71875 107.4375 68.058594 C 106.652344 68.667969 105.722656 69.464844 104.742188 70.304688 C 103.628906 71.261719 102.476562 72.25 101.527344 72.953125 C 101.488281 72.980469 101.445312 72.996094 101.40625 72.996094 " fill-opacity="1" fill-rule="nonzero"/><path fill="#232928" d="M 113.515625 79.441406 C 113.511719 79.441406 113.511719 79.441406 113.507812 79.441406 C 110.367188 79.300781 108.664062 79.113281 106.859375 78.363281 C 106.796875 78.335938 106.769531 78.261719 106.792969 78.199219 C 106.820312 78.136719 106.890625 78.109375 106.953125 78.132812 C 108.722656 78.871094 110.410156 79.058594 113.519531 79.195312 C 113.585938 79.195312 113.640625 79.253906 113.636719 79.324219 C 113.632812 79.390625 113.582031 79.441406 113.515625 79.441406 " fill-opacity="1" fill-rule="nonzero"/><path fill="#232928" d="M 145.914062 50.761719 C 145.851562 50.761719 145.789062 50.730469 145.746094 50.675781 C 143.355469 47.355469 140.375 44.417969 136.886719 41.945312 C 136.796875 41.882812 136.773438 41.753906 136.839844 41.660156 C 136.90625 41.566406 137.035156 41.546875 137.125 41.613281 C 140.652344 44.109375 143.664062 47.078125 146.082031 50.4375 C 146.148438 50.527344 146.125 50.65625 146.035156 50.722656 C 145.996094 50.75 145.957031 50.761719 145.914062 50.761719 " fill-opacity="1" fill-rule="nonzero"/><path fill="#232928" d="M 77.175781 50.53125 C 77.140625 50.53125 77.101562 50.519531 77.070312 50.503906 C 76.972656 50.441406 76.941406 50.316406 77 50.21875 C 78.863281 47.101562 81.71875 44.085938 85.730469 41.003906 C 85.820312 40.933594 85.949219 40.949219 86.019531 41.039062 C 86.089844 41.128906 86.070312 41.257812 85.980469 41.328125 C 82.011719 44.378906 79.1875 47.355469 77.351562 50.429688 C 77.3125 50.496094 77.246094 50.53125 77.175781 50.53125 " fill-opacity="1" fill-rule="nonzero"/><path fill="#232928" d="M 132.859375 72.640625 C 132.855469 72.640625 132.847656 72.640625 132.839844 72.636719 C 132.726562 72.628906 132.644531 72.527344 132.65625 72.414062 L 133.082031 67.988281 C 133.09375 67.875 133.191406 67.792969 133.304688 67.804688 C 133.417969 67.816406 133.503906 67.914062 133.492188 68.027344 L 133.066406 72.453125 C 133.054688 72.5625 132.964844 72.640625 132.859375 72.640625 " fill-opacity="1" fill-rule="nonzero"/><path fill="#232928" d="M 90.445312 71.746094 C 90.339844 71.746094 90.253906 71.667969 90.242188 71.5625 L 89.808594 67.261719 C 89.796875 67.148438 89.878906 67.046875 89.992188 67.039062 C 90.105469 67.027344 90.207031 67.109375 90.21875 67.222656 L 90.652344 71.523438 C 90.660156 71.636719 90.578125 71.734375 90.464844 71.746094 C 90.460938 71.746094 90.453125 71.746094 90.445312 71.746094 " fill-opacity="1" fill-rule="nonzero"/><path fill="#232928" d="M 134.398438 54.398438 C 134.339844 54.398438 134.285156 54.375 134.246094 54.332031 C 134.167969 54.246094 134.175781 54.117188 134.261719 54.042969 L 135.878906 52.601562 C 135.964844 52.523438 136.09375 52.53125 136.167969 52.617188 C 136.246094 52.699219 136.238281 52.828125 136.152344 52.90625 L 134.535156 54.347656 C 134.496094 54.382812 134.445312 54.398438 134.398438 54.398438 " fill-opacity="1" fill-rule="nonzero"/><path fill="#232928" d="M 102.929688 53.378906 C 102.878906 53.378906 102.828125 53.359375 102.789062 53.320312 C 102.707031 53.242188 102.703125 53.113281 102.78125 53.03125 L 104.292969 51.480469 C 104.371094 51.398438 104.503906 51.394531 104.585938 51.476562 C 104.664062 51.554688 104.667969 51.683594 104.589844 51.765625 L 103.078125 53.316406 C 103.035156 53.359375 102.984375 53.378906 102.929688 53.378906 " fill-opacity="1" fill-rule="nonzero"/><path fill="#232928" d="M 129.019531 50.699219 C 129.003906 50.699219 128.988281 50.699219 128.972656 50.695312 C 128.863281 50.671875 128.792969 50.558594 128.820312 50.449219 L 129.171875 48.914062 C 129.199219 48.804688 129.308594 48.738281 129.417969 48.761719 C 129.527344 48.785156 129.597656 48.898438 129.574219 49.007812 L 129.21875 50.542969 C 129.195312 50.636719 129.113281 50.699219 129.019531 50.699219 " fill-opacity="1" fill-rule="nonzero"/><path fill="#232928" d="M 97.28125 50.019531 C 97.269531 50.019531 97.261719 50.015625 97.25 50.015625 C 97.136719 50 97.0625 49.890625 97.078125 49.78125 L 97.320312 48.226562 C 97.339844 48.113281 97.445312 48.039062 97.558594 48.054688 C 97.667969 48.074219 97.746094 48.175781 97.726562 48.289062 L 97.484375 49.84375 C 97.46875 49.945312 97.382812 50.019531 97.28125 50.019531 " fill-opacity="1" fill-rule="nonzero"/><path fill="#232928" d="M 125.996094 50.613281 C 125.902344 50.613281 125.816406 50.550781 125.796875 50.453125 L 125.433594 48.777344 C 125.410156 48.667969 125.480469 48.558594 125.589844 48.535156 C 125.703125 48.511719 125.8125 48.582031 125.835938 48.691406 L 126.199219 50.367188 C 126.21875 50.476562 126.152344 50.585938 126.039062 50.609375 C 126.023438 50.613281 126.011719 50.613281 125.996094 50.613281 " fill-opacity="1" fill-rule="nonzero"/><path fill="#232928" d="M 94.246094 50.140625 C 94.15625 50.140625 94.074219 50.082031 94.050781 49.992188 L 93.570312 48.351562 C 93.539062 48.238281 93.601562 48.125 93.710938 48.09375 C 93.820312 48.0625 93.933594 48.125 93.964844 48.234375 L 94.445312 49.878906 C 94.476562 49.988281 94.414062 50.101562 94.304688 50.132812 C 94.285156 50.136719 94.265625 50.140625 94.246094 50.140625 " fill-opacity="1" fill-rule="nonzero"/><path fill="#232928" d="M 123.132812 51.816406 C 123.058594 51.816406 122.988281 51.777344 122.949219 51.707031 L 122.125 50.203125 C 122.074219 50.101562 122.109375 49.976562 122.207031 49.921875 C 122.308594 49.871094 122.433594 49.90625 122.488281 50.003906 L 123.3125 51.511719 C 123.367188 51.613281 123.328125 51.738281 123.230469 51.789062 C 123.199219 51.808594 123.164062 51.816406 123.132812 51.816406 " fill-opacity="1" fill-rule="nonzero"/><path fill="#232928" d="M 91.402344 51.421875 C 91.335938 51.421875 91.269531 51.390625 91.230469 51.328125 L 90.300781 49.882812 C 90.238281 49.789062 90.269531 49.660156 90.363281 49.597656 C 90.460938 49.539062 90.585938 49.566406 90.648438 49.660156 L 91.574219 51.105469 C 91.636719 51.203125 91.609375 51.328125 91.511719 51.390625 C 91.480469 51.414062 91.441406 51.421875 91.402344 51.421875 " fill-opacity="1" fill-rule="nonzero"/><path fill="#232928" d="M 120.984375 53.421875 C 120.929688 53.421875 120.878906 53.402344 120.839844 53.363281 L 119.578125 52.109375 C 119.496094 52.03125 119.496094 51.902344 119.578125 51.820312 C 119.65625 51.742188 119.789062 51.738281 119.867188 51.820312 L 121.128906 53.070312 C 121.207031 53.152344 121.207031 53.28125 121.128906 53.359375 C 121.089844 53.402344 121.035156 53.421875 120.984375 53.421875 " fill-opacity="1" fill-rule="nonzero"/><path fill="#232928" d="M 89.261719 53.214844 C 89.214844 53.214844 89.164062 53.199219 89.125 53.164062 L 87.78125 52.007812 C 87.695312 51.933594 87.6875 51.800781 87.761719 51.714844 C 87.835938 51.628906 87.964844 51.621094 88.050781 51.695312 L 89.394531 52.855469 C 89.480469 52.925781 89.492188 53.058594 89.417969 53.144531 C 89.375 53.191406 89.320312 53.214844 89.261719 53.214844 " fill-opacity="1" fill-rule="nonzero"/><path fill="#232928" d="M 132.027344 51.957031 C 131.988281 51.957031 131.945312 51.945312 131.910156 51.921875 C 131.816406 51.859375 131.792969 51.730469 131.859375 51.636719 L 132.980469 50.011719 C 133.042969 49.917969 133.171875 49.894531 133.265625 49.960938 C 133.359375 50.023438 133.382812 50.152344 133.320312 50.246094 L 132.195312 51.867188 C 132.15625 51.925781 132.09375 51.957031 132.027344 51.957031 " fill-opacity="1" fill-rule="nonzero"/><path fill="#232928" d="M 100.390625 51.113281 C 100.355469 51.113281 100.320312 51.101562 100.285156 51.085938 C 100.1875 51.027344 100.15625 50.902344 100.214844 50.804688 L 101.214844 49.101562 C 101.273438 49.003906 101.402344 48.972656 101.496094 49.03125 C 101.597656 49.085938 101.628906 49.214844 101.570312 49.308594 L 100.566406 51.011719 C 100.53125 51.074219 100.460938 51.113281 100.390625 51.113281 " fill-opacity="1" fill-rule="nonzero"/><path fill="#232928" d="M 113.277344 111.367188 C 113.160156 111.367188 113.042969 111.359375 112.925781 111.34375 C 110.167969 110.980469 107.328125 107.601562 104.929688 101.835938 C 102.722656 96.53125 101.148438 89.867188 100.613281 83.554688 C 100.601562 83.445312 100.6875 83.34375 100.800781 83.335938 C 100.910156 83.328125 101.011719 83.410156 101.023438 83.519531 C 101.554688 89.792969 103.117188 96.410156 105.308594 101.675781 C 107.652344 107.304688 110.375 110.59375 112.980469 110.9375 C 113.78125 111.042969 114.65625 110.714844 115.578125 109.960938 C 117.679688 108.238281 119.960938 104.296875 121.835938 99.144531 C 123.6875 94.058594 124.925781 88.417969 125.238281 83.664062 C 125.246094 83.550781 125.34375 83.464844 125.457031 83.472656 C 125.570312 83.480469 125.65625 83.578125 125.648438 83.691406 C 125.332031 88.480469 124.085938 94.164062 122.222656 99.28125 C 120.324219 104.503906 117.996094 108.511719 115.839844 110.277344 C 114.953125 111 114.097656 111.367188 113.277344 111.367188 " fill-opacity="1" fill-rule="nonzero"/><path fill="#f9bf75" d="M 112.539062 108.394531 C 110.757812 108.394531 109.3125 109.8125 109.3125 111.558594 C 109.3125 113.304688 110.757812 114.722656 112.539062 114.722656 C 114.320312 114.722656 115.769531 113.304688 115.769531 111.558594 C 115.769531 109.8125 114.320312 108.394531 112.539062 108.394531 " fill-opacity="1" fill-rule="evenodd"/><path fill="#232928" d="M 126.300781 123.722656 C 123.324219 123.722656 120.527344 123.011719 118.410156 121.714844 C 118.316406 121.65625 118.285156 121.527344 118.34375 121.433594 C 118.402344 121.335938 118.53125 121.304688 118.628906 121.363281 C 120.730469 122.65625 123.535156 123.347656 126.515625 123.3125 C 129.332031 123.277344 131.9375 122.597656 133.65625 121.4375 C 133.75 121.375 133.878906 121.398438 133.941406 121.492188 C 134.007812 121.585938 133.980469 121.714844 133.886719 121.777344 C 132.101562 122.980469 129.417969 123.6875 126.519531 123.722656 C 126.449219 123.722656 126.375 123.722656 126.300781 123.722656 " fill-opacity="1" fill-rule="nonzero"/><path fill="#232928" d="M 99.125 123.527344 C 96.148438 123.527344 93.351562 122.820312 91.234375 121.523438 C 91.140625 121.460938 91.109375 121.335938 91.167969 121.238281 C 91.226562 121.140625 91.355469 121.113281 91.449219 121.171875 C 93.554688 122.460938 96.359375 123.15625 99.339844 123.117188 C 102.15625 123.085938 104.761719 122.402344 106.480469 121.242188 C 106.574219 121.179688 106.703125 121.207031 106.765625 121.300781 C 106.828125 121.394531 106.804688 121.523438 106.710938 121.585938 C 104.925781 122.785156 102.238281 123.492188 99.34375 123.527344 C 99.269531 123.527344 99.199219 123.527344 99.125 123.527344 " fill-opacity="1" fill-rule="nonzero"/><path fill="#535252" d="M 118.925781 38.78125 C 118.910156 38.78125 118.894531 38.78125 118.882812 38.777344 C 114.734375 37.847656 111.03125 37.753906 106.503906 38.457031 C 106.390625 38.476562 106.285156 38.398438 106.269531 38.285156 C 106.253906 38.171875 106.328125 38.066406 106.441406 38.050781 C 111.019531 37.339844 114.769531 37.4375 118.972656 38.375 C 119.082031 38.402344 119.152344 38.511719 119.125 38.621094 C 119.105469 38.714844 119.019531 38.78125 118.925781 38.78125 " fill-opacity="1" fill-rule="nonzero"/><path fill="#535252" d="M 128 153.832031 L 125.777344 153.871094 C 125.464844 153.878906 125.203125 153.628906 125.191406 153.316406 L 125.039062 147.898438 C 125.039062 147.898438 126.269531 147.859375 126.679688 147.847656 C 127.105469 147.835938 128.378906 147.796875 128.378906 147.796875 L 128.558594 153.246094 C 128.570312 153.5625 128.316406 153.828125 128 153.832031 " fill-opacity="1" fill-rule="evenodd"/><path fill="#535252" d="M 108.566406 197.734375 C 108.550781 197.734375 108.539062 197.734375 108.527344 197.730469 C 108.414062 197.710938 108.339844 197.605469 108.363281 197.492188 C 108.890625 194.617188 109.394531 191.613281 109.859375 188.542969 C 109.820312 188.535156 109.78125 188.519531 109.753906 188.488281 C 106.796875 185.753906 105.5625 182.667969 105.351562 177.492188 C 105.140625 172.34375 105.964844 165.082031 107.222656 154.09375 L 107.351562 152.953125 C 107.363281 152.839844 107.464844 152.757812 107.578125 152.773438 C 107.691406 152.785156 107.773438 152.886719 107.761719 153 L 107.628906 154.140625 C 106.378906 165.109375 105.550781 172.359375 105.761719 177.476562 C 105.964844 182.472656 107.136719 185.460938 109.925781 188.089844 C 111.625 176.800781 112.851562 164.574219 113.328125 153.898438 C 113.335938 153.785156 113.425781 153.699219 113.542969 153.703125 C 113.65625 153.707031 113.746094 153.804688 113.738281 153.917969 C 113.125 167.664062 111.269531 183.984375 108.765625 197.566406 C 108.746094 197.664062 108.660156 197.734375 108.566406 197.734375 " fill-opacity="1" fill-rule="nonzero"/><path fill="#535252" d="M 114.40625 152.183594 L 106.003906 151.742188 C 105.574219 151.71875 105.242188 151.351562 105.261719 150.921875 L 105.347656 149.28125 C 105.371094 148.851562 105.738281 148.519531 106.171875 148.542969 L 114.574219 148.984375 C 115.007812 149.007812 115.335938 149.375 115.3125 149.804688 L 115.226562 151.445312 C 115.207031 151.875 114.835938 152.207031 114.40625 152.183594 Z M 103.714844 147.550781 L 103.449219 152.476562 C 103.429688 152.90625 103.757812 153.273438 104.191406 153.296875 L 116.058594 153.925781 C 116.488281 153.949219 116.855469 153.617188 116.878906 153.1875 L 117.140625 148.261719 C 117.164062 147.832031 116.832031 147.464844 116.402344 147.441406 L 104.535156 146.8125 C 104.105469 146.789062 103.734375 147.121094 103.714844 147.550781 " fill-opacity="1" fill-rule="evenodd"/><path fill="#535252" d="M 94.792969 151.503906 L 92.355469 150.996094 C 92.082031 150.9375 91.894531 150.679688 91.925781 150.398438 L 92.5625 145.066406 C 92.5625 145.066406 93.910156 145.378906 94.355469 145.480469 C 94.785156 145.574219 96.0625 145.832031 96.0625 145.832031 L 95.40625 151.066406 C 95.371094 151.363281 95.085938 151.5625 94.792969 151.503906 " fill-opacity="1" fill-rule="evenodd"/><path fill="#232928" d="M 135.089844 55.847656 C 135.015625 55.847656 134.945312 55.808594 134.910156 55.738281 C 133.285156 52.707031 130.742188 50.851562 127.933594 50.648438 C 124.933594 50.429688 121.945312 52.105469 119.523438 55.375 C 119.453125 55.464844 119.324219 55.484375 119.234375 55.417969 C 119.144531 55.351562 119.125 55.222656 119.191406 55.132812 C 121.703125 51.746094 124.820312 50.007812 127.960938 50.238281 C 130.917969 50.453125 133.582031 52.390625 135.269531 55.546875 C 135.324219 55.644531 135.285156 55.769531 135.1875 55.824219 C 135.15625 55.839844 135.121094 55.847656 135.089844 55.847656 " fill-opacity="1" fill-rule="nonzero"/><path fill="#232928" d="M 103.882812 55.273438 C 103.8125 55.273438 103.742188 55.234375 103.703125 55.167969 C 102.082031 52.136719 99.539062 50.28125 96.730469 50.078125 C 93.730469 49.855469 90.742188 51.535156 88.316406 54.804688 C 88.25 54.894531 88.121094 54.914062 88.03125 54.847656 C 87.9375 54.78125 87.917969 54.648438 87.988281 54.558594 C 90.5 51.175781 93.613281 49.4375 96.757812 49.667969 C 99.710938 49.882812 102.375 51.816406 104.066406 54.972656 C 104.121094 55.074219 104.082031 55.195312 103.980469 55.25 C 103.953125 55.265625 103.917969 55.273438 103.882812 55.273438 " fill-opacity="1" fill-rule="nonzero"/><path fill="#232928" d="M 111.890625 42.933594 C 110.449219 42.933594 109.28125 44.089844 109.28125 45.511719 C 109.28125 46.933594 110.449219 48.089844 111.890625 48.089844 C 113.328125 48.089844 114.496094 46.933594 114.496094 45.511719 C 114.496094 44.089844 113.328125 42.933594 111.890625 42.933594 Z M 111.890625 48.503906 C 110.222656 48.503906 108.867188 47.160156 108.867188 45.511719 C 108.867188 43.863281 110.222656 42.523438 111.890625 42.523438 C 113.554688 42.523438 114.910156 43.863281 114.910156 45.511719 C 114.910156 47.160156 113.554688 48.503906 111.890625 48.503906 " fill-opacity="1" fill-rule="nonzero"/></svg>