<svg xmlns="http://www.w3.org/2000/svg" xmlns:xlink="http://www.w3.org/1999/xlink" width="300" zoomAndPan="magnify" viewBox="0 0 224.87999 225" height="300" preserveAspectRatio="xMidYMid meet" version="1.0"><defs><clipPath id="840aa002ba"><path d="M 132 199 L 185 199 L 185 202.453125 L 132 202.453125 Z M 132 199 " clip-rule="nonzero"/></clipPath><clipPath id="4a826db8f0"><path d="M 58 22.546875 L 78 22.546875 L 78 42 L 58 42 Z M 58 22.546875 " clip-rule="nonzero"/></clipPath><clipPath id="65e90a6ed2"><path d="M 45.230469 199 L 108 199 L 108 202.453125 L 45.230469 202.453125 Z M 45.230469 199 " clip-rule="nonzero"/></clipPath><clipPath id="4892a5af48"><path d="M 45.230469 45 L 91 45 L 91 85 L 45.230469 85 Z M 45.230469 45 " clip-rule="nonzero"/></clipPath></defs><path fill="#bb2328" d="M 170.058594 56.425781 C 169.691406 55.6875 169.089844 55.160156 168.332031 54.855469 C 168.265625 54.828125 168.140625 54.800781 168.097656 54.738281 C 168.027344 54.648438 168.125 54.507812 168.167969 54.414062 C 168.28125 54.152344 168.394531 53.890625 168.492188 53.621094 C 168.675781 53.117188 168.808594 52.589844 168.808594 52.050781 C 168.808594 50.96875 168.253906 50.058594 167.25 49.640625 C 166.417969 49.296875 165.488281 49.277344 164.65625 48.949219 C 164.886719 48.46875 165.121094 47.988281 165.351562 47.507812 C 165.597656 46.992188 165.84375 46.46875 166.011719 45.921875 C 166.3125 44.921875 166.308594 43.75 165.632812 42.898438 C 165.007812 42.113281 163.988281 41.859375 163.039062 41.730469 C 162.898438 41.710938 162.515625 41.730469 162.453125 41.574219 C 162.382812 41.402344 162.632812 41.027344 162.695312 40.878906 C 162.929688 40.320312 163.082031 39.734375 163.160156 39.136719 C 163.242188 38.527344 163.296875 37.828125 163.003906 37.265625 C 162.894531 37.050781 162.722656 36.875 162.519531 36.753906 C 162.996094 36.910156 163.425781 37.15625 163.667969 37.59375 C 163.933594 38.078125 163.839844 38.664062 163.710938 39.175781 C 163.601562 39.621094 163.25 40.253906 163.59375 40.667969 C 163.878906 41.011719 164.363281 40.949219 164.757812 40.964844 C 165.230469 40.988281 165.683594 41.167969 166.066406 41.433594 C 166.925781 42.03125 167.335938 43.058594 167.3125 44.085938 C 167.277344 45.378906 166.464844 46.402344 166.128906 47.609375 C 166.03125 47.964844 166.585938 48.117188 166.683594 47.761719 C 166.847656 47.175781 167.136719 46.640625 167.382812 46.085938 C 167.621094 45.558594 167.796875 45.023438 167.859375 44.449219 C 167.984375 43.355469 167.671875 42.203125 166.902344 41.398438 C 166.558594 41.035156 166.132812 40.753906 165.664062 40.578125 C 165.4375 40.492188 165.207031 40.4375 164.972656 40.410156 C 164.730469 40.378906 164.484375 40.410156 164.246094 40.378906 C 164.183594 40.367188 164.078125 40.355469 164.035156 40.300781 C 163.976562 40.230469 164.058594 40.050781 164.082031 39.976562 C 164.171875 39.679688 164.261719 39.386719 164.324219 39.085938 C 164.4375 38.53125 164.464844 37.957031 164.226562 37.433594 C 163.957031 36.828125 163.421875 36.480469 162.824219 36.261719 C 164.414062 36.007812 165.121094 34.191406 165.300781 32.785156 C 165.398438 32.015625 165.300781 31.1875 164.84375 30.539062 C 164.378906 29.890625 163.640625 29.582031 162.863281 29.503906 C 161.289062 29.34375 159.847656 30.269531 159.152344 31.65625 C 158.941406 32.074219 158.816406 32.527344 158.867188 33 C 158.890625 33.21875 158.949219 33.429688 159.019531 33.636719 C 158.871094 33.421875 158.761719 33.183594 158.613281 32.949219 C 158.363281 32.566406 157.9375 32.222656 157.453125 32.316406 C 157.046875 32.394531 156.804688 32.828125 156.371094 32.601562 C 155.972656 32.394531 155.695312 32.007812 155.359375 31.722656 C 154.394531 30.894531 152.957031 30.976562 151.980469 31.691406 C 151.8125 31.628906 151.632812 31.585938 151.4375 31.574219 C 151.078125 31.550781 150.71875 31.640625 150.371094 31.722656 C 150.011719 31.8125 149.652344 31.902344 149.296875 32.003906 C 148.652344 32.1875 148.007812 32.414062 147.421875 32.746094 C 146.382812 33.335938 145.503906 34.308594 145.328125 35.523438 C 145.285156 35.824219 145.285156 36.148438 145.167969 36.433594 C 145.050781 36.726562 144.789062 36.925781 144.625 37.191406 C 144.316406 37.695312 144.261719 38.328125 144.402344 38.894531 C 144.742188 40.285156 146.140625 40.980469 147.46875 41.082031 C 147.480469 41.085938 147.492188 41.082031 147.503906 41.082031 C 148.136719 41.335938 148.792969 41.625 149.238281 42.160156 C 149.601562 42.59375 149.765625 43.320312 149.441406 43.820312 C 149.273438 44.078125 148.914062 44.171875 148.847656 44.496094 C 148.769531 44.863281 149.144531 45.230469 149.339844 45.507812 C 149.539062 45.785156 149.785156 46.105469 149.808594 46.457031 C 149.824219 46.769531 149.632812 47.003906 149.382812 47.164062 C 149.109375 47.339844 148.800781 47.449219 148.5 47.574219 C 148.179688 47.707031 147.871094 47.871094 147.585938 48.070312 C 147 48.472656 146.488281 49.007812 146.183594 49.652344 C 145.640625 50.8125 145.832031 52.335938 146.871094 53.164062 C 147.125 53.367188 147.402344 53.46875 147.691406 53.605469 C 147.792969 53.652344 147.957031 53.714844 148.015625 53.816406 C 148.089844 53.945312 147.964844 54.097656 147.898438 54.207031 C 147.519531 54.851562 147.027344 55.429688 146.707031 56.109375 C 146.382812 56.792969 146.273438 57.535156 146.476562 58.273438 C 146.671875 58.980469 147.109375 59.613281 147.6875 60.0625 C 148.292969 60.535156 149.023438 60.808594 149.78125 60.910156 C 150.503906 61.011719 151.226562 60.863281 151.941406 60.957031 C 152.273438 61.003906 152.585938 61.132812 152.78125 61.417969 C 152.976562 61.710938 153.0625 62.0625 153.210938 62.378906 C 153.5 63.003906 154.070312 63.425781 154.722656 63.613281 C 155.496094 63.839844 156.246094 63.722656 156.945312 63.441406 C 158.847656 63.695312 160.785156 63.515625 162.65625 63.082031 C 163.78125 62.820312 164.882812 62.46875 165.964844 62.066406 C 166.886719 61.726562 167.835938 61.375 168.664062 60.832031 C 169.402344 60.339844 170.058594 59.664062 170.3125 58.792969 C 170.535156 58.007812 170.414062 57.152344 170.058594 56.425781 Z M 170.058594 56.425781 " fill-opacity="1" fill-rule="nonzero"/><path fill="#e6916b" d="M 158.273438 46.863281 C 158.273438 46.863281 152.371094 47.910156 152.664062 48.398438 C 152.957031 48.890625 154.675781 53.367188 153.578125 54.894531 C 153.394531 55.148438 153.160156 55.386719 152.890625 55.613281 C 152.652344 58.742188 152.128906 66.503906 152.859375 66.089844 C 153.675781 65.621094 159.839844 55.390625 161.15625 53.1875 C 159.277344 51.800781 158.273438 46.863281 158.273438 46.863281 Z M 158.273438 46.863281 " fill-opacity="1" fill-rule="nonzero"/><path fill="#ffffff" d="M 156.1875 58.140625 C 155.304688 58.304688 154.417969 58.457031 153.527344 58.574219 C 153.246094 58.609375 152.960938 58.640625 152.679688 58.671875 C 152.46875 62.144531 152.3125 66.398438 152.859375 66.089844 C 153.386719 65.785156 156.160156 61.382812 158.410156 57.722656 C 157.667969 57.863281 156.929688 58 156.1875 58.140625 Z M 156.1875 58.140625 " fill-opacity="1" fill-rule="nonzero"/><path fill="#1a1a1a" d="M 153.910156 53.917969 C 154.574219 53.882812 155.230469 53.671875 155.820312 53.363281 C 156.460938 53.027344 157.058594 52.566406 157.484375 51.980469 C 157.945312 51.351562 158.136719 50.601562 158.148438 49.832031 C 158.164062 48.859375 157.949219 47.910156 157.691406 46.972656 C 156.207031 47.25 152.429688 48.007812 152.664062 48.398438 C 152.910156 48.808594 154.140625 51.988281 153.910156 53.917969 Z M 153.910156 53.917969 " fill-opacity="1" fill-rule="nonzero"/><g clip-path="url(#840aa002ba)"><path fill="#857896" d="M 184.890625 200.710938 C 184.882812 201.792969 179.417969 202.265625 160.835938 202.207031 C 135.660156 202.128906 132.585938 201.464844 132.59375 200.378906 C 132.601562 199.292969 135.90625 198.894531 160.964844 199.085938 C 181.800781 199.246094 184.894531 199.625 184.890625 200.710938 Z M 184.890625 200.710938 " fill-opacity="1" fill-rule="nonzero"/></g><path fill="#ffffff" d="M 134.238281 196.546875 C 134.238281 196.546875 133.476562 196.507812 133.503906 197.804688 C 133.527344 199.101562 133.441406 200.421875 134.007812 200.613281 C 134.578125 200.808594 138.433594 201.019531 142.417969 201.042969 C 146.398438 201.066406 156.472656 201 156.695312 200.621094 C 156.917969 200.242188 156.859375 196.933594 156.511719 196.769531 C 156.164062 196.609375 134.238281 196.546875 134.238281 196.546875 Z M 134.238281 196.546875 " fill-opacity="1" fill-rule="nonzero"/><path fill="#e6916b" d="M 145.519531 171.125 C 145.519531 171.125 147.632812 180.238281 147.097656 185.992188 C 146.914062 188.003906 135.285156 194.273438 134.363281 195.101562 C 133.441406 195.929688 133.835938 197.136719 134.085938 197.386719 C 134.335938 197.640625 155.125 197.726562 156.128906 197.234375 C 157.132812 196.738281 154.90625 188.15625 154.691406 186.121094 C 153.902344 178.6875 154.195312 171.175781 154.546875 168.425781 C 154.894531 165.671875 145.519531 171.125 145.519531 171.125 Z M 145.519531 171.125 " fill-opacity="1" fill-rule="nonzero"/><path fill="#ffffff" d="M 150.039062 187.800781 C 148.769531 187.71875 147.5 187.527344 146.269531 187.203125 C 143.5625 189.820312 135.144531 194.402344 134.363281 195.101562 C 133.441406 195.929688 133.835938 197.136719 134.085938 197.386719 C 134.335938 197.640625 155.125 197.726562 156.128906 197.234375 C 156.960938 196.824219 155.570312 190.835938 154.949219 187.652344 C 153.320312 187.839844 151.675781 187.90625 150.039062 187.800781 Z M 150.039062 187.800781 " fill-opacity="1" fill-rule="nonzero"/><path fill="#ee404c" d="M 155.453125 190.136719 C 153.8125 190.835938 150.941406 191.535156 150.367188 190.90625 C 149.683594 190.167969 150.515625 187.410156 149.347656 186.570312 C 148.628906 186.058594 147.472656 186.015625 146.683594 186.0625 C 146.011719 186.085938 145.703125 187.722656 145.15625 188.152344 C 141.761719 190.800781 135.054688 194.480469 134.363281 195.101562 C 133.441406 195.929688 133.835938 197.136719 134.085938 197.386719 C 134.335938 197.640625 155.125 197.726562 156.128906 197.234375 C 156.699219 196.953125 156.226562 194.058594 155.671875 191.238281 C 155.597656 190.867188 155.878906 190.136719 155.453125 190.136719 Z M 155.453125 190.136719 " fill-opacity="1" fill-rule="nonzero"/><path fill="#ffffff" d="M 164.671875 196.726562 C 164.671875 196.726562 163.910156 196.6875 163.933594 197.984375 C 163.960938 199.28125 163.875 200.601562 164.441406 200.792969 C 165.007812 200.988281 168.867188 201.199219 172.847656 201.222656 C 176.832031 201.246094 180.34375 201.140625 180.566406 200.761719 C 180.789062 200.382812 180.730469 197.074219 180.382812 196.914062 C 180.035156 196.753906 164.671875 196.726562 164.671875 196.726562 Z M 164.671875 196.726562 " fill-opacity="1" fill-rule="nonzero"/><path fill="#e6916b" d="M 169.355469 171.460938 C 169.355469 171.460938 171.472656 180.574219 170.9375 186.332031 C 170.75 188.339844 166.183594 194.222656 165.261719 195.050781 C 164.339844 195.878906 164.414062 197.300781 164.664062 197.550781 C 164.910156 197.804688 178.960938 198.066406 179.964844 197.570312 C 180.96875 197.074219 178.746094 188.492188 178.527344 186.457031 C 177.738281 179.023438 178.03125 171.511719 178.382812 168.761719 C 178.734375 166.007812 169.355469 171.460938 169.355469 171.460938 Z M 169.355469 171.460938 " fill-opacity="1" fill-rule="nonzero"/><path fill="#ffffff" d="M 175.886719 188.03125 C 174.507812 188.144531 173.113281 188.128906 171.742188 187.941406 C 171.316406 187.882812 170.890625 187.804688 170.472656 187.707031 C 169.25 190.261719 166.019531 194.367188 165.261719 195.050781 C 164.339844 195.878906 164.414062 197.300781 164.664062 197.550781 C 164.910156 197.804688 178.960938 198.066406 179.964844 197.570312 C 180.832031 197.144531 179.292969 190.699219 178.71875 187.628906 C 177.78125 187.8125 176.835938 187.953125 175.886719 188.03125 Z M 175.886719 188.03125 " fill-opacity="1" fill-rule="nonzero"/><path fill="#ee404c" d="M 179.964844 197.570312 C 180.507812 197.300781 180.105469 194.667969 179.589844 191.984375 C 179.449219 191.257812 179.765625 189.886719 179.160156 189.839844 C 178.898438 190.144531 177.261719 191.046875 176.761719 190.679688 C 176.226562 190.285156 176.957031 187.050781 175.296875 186.503906 C 174.03125 186.085938 171.917969 186.175781 170.867188 186.691406 C 170.058594 187.035156 170.4375 187.828125 170.039062 188.53125 C 168.617188 191.0625 165.945312 194.4375 165.261719 195.050781 C 164.339844 195.878906 164.414062 197.300781 164.664062 197.550781 C 164.910156 197.804688 178.960938 198.066406 179.964844 197.570312 Z M 179.964844 197.570312 " fill-opacity="1" fill-rule="nonzero"/><path fill="#c01e22" d="M 173.773438 194.207031 C 171.21875 192.949219 168.054688 193.132812 165.542969 194.480469 C 165.214844 194.652344 165.332031 194.941406 165.679688 194.8125 C 168.027344 193.953125 171.042969 193.675781 173.410156 194.839844 C 173.738281 195.003906 174.105469 194.371094 173.773438 194.207031 Z M 173.773438 194.207031 " fill-opacity="1" fill-rule="nonzero"/><path fill="#6c4e4e" d="M 171.773438 97.683594 C 171.773438 97.683594 176.574219 134 177.746094 139.433594 C 178.921875 144.867188 185.234375 173.945312 185.675781 178.058594 C 186.113281 182.171875 165.710938 182.613281 164.683594 181.144531 C 163.65625 179.675781 160.132812 146.042969 160.132812 146.042969 C 160.132812 146.042969 160.722656 179.820312 159.988281 181.144531 C 159.253906 182.464844 140.90625 182.316406 140.023438 180.703125 C 139.144531 179.085938 141.34375 146.042969 141.199219 138.40625 C 141.050781 130.769531 144.867188 92.292969 144.867188 92.292969 Z M 171.773438 97.683594 " fill-opacity="1" fill-rule="nonzero"/><path fill="#4a3333" d="M 162.867188 168.863281 C 162.351562 163.917969 158.554688 131.019531 158.035156 126.074219 L 156.492188 111.28125 C 156.203125 108.507812 155.910156 105.730469 155.621094 102.957031 C 155.570312 102.46875 154.816406 102.601562 154.867188 103.09375 C 154.941406 103.789062 155.011719 104.484375 155.085938 105.179688 C 155.085938 105.179688 154.46875 105.160156 153.726562 104.632812 C 153.308594 104.34375 153.097656 104.023438 152.765625 103.671875 C 152.59375 103.492188 152.359375 103.695312 152.488281 103.90625 C 152.773438 104.367188 153.0625 104.625 153.523438 104.972656 C 153.847656 105.222656 154.792969 105.601562 155.125 105.574219 C 155.558594 109.695312 155.988281 113.8125 156.417969 117.933594 C 156.933594 122.863281 157.445312 127.792969 157.960938 132.722656 C 158.25 135.5 161.824219 166.222656 162.113281 169 C 162.164062 169.488281 162.917969 169.351562 162.867188 168.863281 Z M 162.867188 168.863281 " fill-opacity="1" fill-rule="nonzero"/><path fill="#4a3333" d="M 156.402344 117.933594 C 156.347656 121.898438 156.261719 125.863281 156.144531 129.824219 C 156.027344 133.789062 155.875 137.75 155.6875 141.710938 C 155.585938 143.9375 155.472656 146.164062 155.347656 148.390625 C 155.332031 148.636719 155.714844 148.636719 155.730469 148.390625 C 155.953125 144.429688 156.140625 140.472656 156.296875 136.507812 C 156.453125 132.546875 156.574219 128.585938 156.664062 124.621094 C 156.714844 122.394531 156.753906 120.164062 156.785156 117.933594 C 156.789062 117.6875 156.40625 117.6875 156.402344 117.933594 Z M 156.402344 117.933594 " fill-opacity="1" fill-rule="nonzero"/><path fill="#4a3333" d="M 155.324219 156.457031 C 155.269531 155.984375 155.316406 155.550781 155.476562 155.105469 C 155.628906 154.695312 155.8125 154.269531 155.722656 153.824219 C 155.636719 153.410156 155.296875 153.144531 155.101562 152.789062 C 154.722656 152.09375 154.898438 151.179688 155.476562 150.652344 C 155.660156 150.484375 155.386719 150.214844 155.207031 150.378906 C 154.714844 150.828125 154.464844 151.507812 154.527344 152.171875 C 154.558594 152.496094 154.660156 152.816406 154.839844 153.09375 C 155.058594 153.433594 155.390625 153.703125 155.363281 154.148438 C 155.332031 154.582031 155.082031 154.980469 154.984375 155.402344 C 154.882812 155.824219 154.90625 156.257812 154.96875 156.683594 C 155.039062 157.160156 155.160156 157.625 155.214844 158.101562 C 155.269531 158.578125 155.261719 159.0625 155.242188 159.542969 C 155.070312 163.480469 154.792969 167.417969 154.566406 171.355469 C 154.441406 173.582031 154.3125 175.808594 154.1875 178.03125 C 154.171875 178.277344 154.554688 178.277344 154.570312 178.03125 C 154.792969 174.152344 155.011719 170.273438 155.234375 166.394531 C 155.34375 164.472656 155.453125 162.546875 155.566406 160.625 C 155.617188 159.691406 155.699219 158.75 155.5625 157.824219 C 155.492188 157.367188 155.375 156.917969 155.324219 156.457031 Z M 155.324219 156.457031 " fill-opacity="1" fill-rule="nonzero"/><path fill="#4a3333" d="M 170.3125 103.003906 C 168.582031 102.425781 167.203125 100.976562 166.699219 99.226562 C 166.597656 98.871094 166.042969 99.019531 166.144531 99.378906 C 166.707031 101.328125 168.238281 102.917969 170.160156 103.558594 C 170.511719 103.679688 170.660156 103.121094 170.3125 103.003906 Z M 170.3125 103.003906 " fill-opacity="1" fill-rule="nonzero"/><path fill="#1a1a1a" d="M 173.082031 78.59375 C 171.132812 78.523438 169.1875 78.398438 167.242188 78.222656 C 167.242188 78.21875 167.242188 78.21875 167.242188 78.21875 C 166.96875 74.632812 166.453125 71.070312 165.703125 67.554688 C 165.628906 67.195312 165.054688 67.257812 165.132812 67.621094 C 165.875 71.097656 166.382812 74.621094 166.660156 78.167969 C 165.269531 78.03125 163.882812 77.871094 162.496094 77.679688 C 161.5 77.542969 160.507812 77.390625 159.515625 77.226562 C 159.148438 77.164062 159.0625 77.734375 159.425781 77.792969 C 162.921875 78.375 166.445312 78.785156 169.980469 79.011719 C 170.984375 79.078125 171.988281 79.128906 172.996094 79.164062 C 173.359375 79.175781 173.453125 78.609375 173.082031 78.59375 Z M 173.082031 78.59375 " fill-opacity="1" fill-rule="nonzero"/><path fill="#f4b44f" d="M 177.453125 78.585938 C 176.671875 76.53125 175.824219 66.382812 173.148438 61.160156 C 170.535156 56.0625 166.308594 56.777344 161.210938 53.230469 C 161.078125 53.136719 160.949219 53.027344 160.824219 52.898438 C 160.671875 52.75 160.53125 52.578125 160.394531 52.386719 C 155.625 62.175781 154.042969 63.148438 153.710938 63.414062 C 153.652344 63.460938 152.917969 60.976562 153.523438 54.960938 C 151.695312 57.359375 145.613281 58.289062 144.902344 61.910156 C 144.375 64.601562 143.371094 69.808594 142.6875 72.058594 C 142 74.3125 142.582031 76.621094 142.582031 76.621094 C 142.582031 76.621094 139.847656 75.605469 137.011719 74.625 C 134.171875 73.648438 133.625 73.523438 133.625 73.523438 L 133.515625 84.671875 L 144.265625 87.691406 C 144.265625 87.691406 144.207031 90.992188 143.71875 92.808594 C 143.488281 93.660156 143.609375 95.917969 144.488281 95.917969 C 145.371094 95.917969 150.886719 94.054688 161.113281 96.113281 C 166.964844 97.289062 171.773438 97.683594 171.773438 97.683594 C 171.773438 97.683594 173.980469 96.75 172.359375 93.476562 C 171.636719 92.015625 171.554688 90.828125 171.554688 90.828125 C 171.554688 90.828125 172.734375 90.984375 175.691406 88.964844 C 178.007812 87.382812 178.238281 80.640625 177.453125 78.585938 Z M 177.453125 78.585938 " fill-opacity="1" fill-rule="nonzero"/><path fill="#1a1a1a" d="M 132.082031 78.195312 C 132.082031 78.195312 132.601562 84.671875 133.515625 84.671875 C 134.429688 84.671875 134.980469 80.242188 134.980469 80.242188 Z M 132.082031 78.195312 " fill-opacity="1" fill-rule="nonzero"/><path fill="#e6916b" d="M 133.90625 73.691406 C 133.90625 73.691406 132.1875 72.636719 129.886719 71.1875 C 127.589844 69.738281 124.671875 69.785156 123.136719 69.019531 C 121.601562 68.25 120.976562 70.125 122.59375 70.890625 C 124.214844 71.660156 124.605469 71.527344 124.351562 71.953125 C 124.09375 72.378906 119.261719 70.65625 117.964844 70.273438 C 116.109375 69.726562 115.570312 70.117188 115.519531 70.273438 C 115.46875 70.429688 114.320312 70.109375 114.007812 70.472656 C 113.695312 70.835938 113.539062 71.160156 114.113281 71.523438 C 114.6875 71.886719 114.320312 72.667969 115.207031 73.085938 C 116.09375 73.503906 116.039062 73.292969 116.039062 73.761719 C 116.039062 74.234375 117.132812 74.960938 119.164062 75.796875 C 121.195312 76.628906 123.019531 77.046875 124.945312 77.359375 C 126.871094 77.671875 128.050781 77.671875 129.40625 78.195312 C 130.761719 78.714844 134.980469 80.242188 134.980469 80.242188 C 134.980469 80.242188 135.667969 74.671875 133.90625 73.691406 Z M 133.90625 73.691406 " fill-opacity="1" fill-rule="nonzero"/><path fill="#db805c" d="M 126.21875 73.285156 C 126.148438 73.234375 126.074219 73.179688 126.003906 73.128906 C 126 73.125 125.996094 73.121094 125.996094 73.121094 C 125.992188 73.121094 125.992188 73.121094 125.992188 73.117188 C 125.972656 73.105469 125.957031 73.089844 125.9375 73.078125 C 125.90625 73.050781 125.871094 73.019531 125.835938 72.992188 C 125.707031 72.882812 125.578125 72.769531 125.457031 72.648438 C 125.332031 72.53125 125.214844 72.40625 125.101562 72.277344 C 125.042969 72.210938 124.988281 72.144531 124.929688 72.078125 C 124.90625 72.046875 124.882812 72.015625 124.859375 71.984375 C 124.855469 71.980469 124.855469 71.980469 124.855469 71.980469 C 124.851562 71.976562 124.851562 71.976562 124.847656 71.96875 C 124.832031 71.949219 124.816406 71.925781 124.796875 71.90625 C 124.710938 71.785156 124.546875 71.710938 124.40625 71.800781 C 124.285156 71.878906 124.207031 72.066406 124.300781 72.195312 C 124.757812 72.808594 125.300781 73.339844 125.929688 73.78125 C 126.050781 73.867188 126.253906 73.808594 126.320312 73.675781 C 126.398438 73.53125 126.351562 73.375 126.21875 73.285156 Z M 126.21875 73.285156 " fill-opacity="1" fill-rule="nonzero"/><path fill="#db805c" d="M 121.160156 72.429688 C 121.148438 72.058594 120.574219 72.058594 120.585938 72.429688 C 120.605469 73.011719 120.640625 73.59375 120.6875 74.175781 C 120.03125 73.882812 119.378906 73.582031 118.707031 73.324219 C 118 73.058594 117.015625 72.734375 116.308594 73.148438 C 115.988281 73.335938 116.019531 73.625 116.339844 73.4375 C 116.65625 73.253906 117.332031 73.539062 117.671875 73.609375 C 118.027344 73.6875 118.375 73.808594 118.710938 73.941406 C 119.4375 74.230469 120.148438 74.566406 120.863281 74.882812 C 121.042969 74.960938 121.320312 74.875 121.296875 74.632812 C 121.230469 73.898438 121.183594 73.164062 121.160156 72.429688 Z M 121.160156 72.429688 " fill-opacity="1" fill-rule="nonzero"/><path fill="#fde9ea" d="M 172.3125 90.796875 C 170.347656 90.796875 168.480469 90.667969 166.539062 90.378906 C 164.59375 90.085938 162.644531 89.769531 160.699219 89.464844 C 159.582031 89.289062 158.460938 89.113281 157.34375 88.9375 C 157.136719 88.90625 156.929688 88.988281 156.871094 89.207031 C 156.820312 89.386719 156.933594 89.644531 157.136719 89.675781 C 159.125 89.988281 161.109375 90.300781 163.097656 90.613281 C 165.066406 90.921875 167.03125 91.257812 169.011719 91.46875 C 170.140625 91.589844 171.179688 91.5625 172.3125 91.5625 C 172.804688 91.5625 172.808594 90.796875 172.3125 90.796875 Z M 172.3125 90.796875 " fill-opacity="1" fill-rule="nonzero"/><path fill="#d59839" d="M 144.8125 67.296875 C 144.988281 66.96875 144.492188 66.679688 144.316406 67.003906 C 142.816406 69.832031 141.25 72.890625 141.605469 76.195312 C 141.785156 77.863281 142.355469 79.449219 142.785156 81.0625 C 143.230469 82.722656 143.519531 84.421875 143.648438 86.132812 C 143.792969 88.054688 143.738281 89.988281 143.492188 91.898438 C 143.445312 92.261719 144.019531 92.257812 144.066406 91.898438 C 144.496094 88.5625 144.332031 85.15625 143.582031 81.878906 C 143.207031 80.242188 142.613281 78.65625 142.304688 77 C 142.003906 75.394531 142.128906 73.800781 142.597656 72.238281 C 143.117188 70.503906 143.96875 68.890625 144.8125 67.296875 Z M 144.8125 67.296875 " fill-opacity="1" fill-rule="nonzero"/><path fill="#1a1a1a" d="M 158.796875 84.230469 C 158.796875 84.230469 158.078125 88.800781 156.707031 88.800781 C 155.339844 88.800781 154.816406 81.097656 154.949219 80.578125 C 155.078125 80.054688 158.796875 84.230469 158.796875 84.230469 Z M 158.796875 84.230469 " fill-opacity="1" fill-rule="nonzero"/><path fill="#e6916b" d="M 158.214844 77.988281 C 158.214844 77.988281 155.351562 76.824219 154.167969 75.875 C 152.980469 74.925781 153.429688 74.230469 152.5 73.078125 C 151.574219 71.925781 151.507812 71.253906 150.964844 71.253906 C 150.421875 71.253906 150.160156 71.59375 150.066406 72.265625 C 149.96875 72.9375 150.378906 73.929688 150.667969 74.472656 C 150.953125 75.019531 150.046875 74.960938 148.414062 74.769531 C 146.785156 74.578125 144.300781 73.582031 143.375 73.496094 C 142.351562 73.398438 141.878906 73.707031 141.941406 74.121094 C 141.917969 74.207031 141.207031 74.089844 140.792969 74.472656 C 140.375 74.859375 140.902344 75.667969 141.351562 75.921875 C 141.800781 76.179688 141.324219 76.703125 141.675781 77.34375 C 141.9375 77.816406 142.285156 78.039062 143.082031 78.75 C 143.082031 78.75 142.679688 79.160156 143.257812 79.738281 C 143.832031 80.3125 145.09375 81.652344 149.296875 82.824219 C 150.964844 83.289062 152.382812 82.609375 154.109375 82.929688 C 155.835938 83.25 158.796875 84.230469 158.796875 84.230469 C 158.796875 84.230469 159.644531 78.742188 158.214844 77.988281 Z M 158.214844 77.988281 " fill-opacity="1" fill-rule="nonzero"/><path fill="#db805c" d="M 147.109375 76.339844 C 145.371094 75.703125 143.859375 75.210938 142.222656 74.339844 C 141.898438 74.164062 141.910156 74.402344 142.238281 74.574219 C 143.914062 75.46875 145.171875 76.242188 146.957031 76.894531 C 147.304688 77.019531 147.453125 76.464844 147.109375 76.339844 Z M 147.109375 76.339844 " fill-opacity="1" fill-rule="nonzero"/><path fill="#db805c" d="M 147.246094 78.4375 C 145.496094 77.859375 143.34375 77.054688 141.769531 76.089844 C 141.453125 75.898438 141.464844 76.234375 141.78125 76.425781 C 143.394531 77.414062 145.296875 78.398438 147.09375 78.992188 C 147.445312 79.109375 147.597656 78.554688 147.246094 78.4375 Z M 147.246094 78.4375 " fill-opacity="1" fill-rule="nonzero"/><path fill="#db805c" d="M 147.429688 80.292969 C 146.191406 79.945312 144.660156 79.519531 143.554688 78.855469 C 143.238281 78.664062 143.140625 78.835938 143.457031 79.027344 C 144.597656 79.714844 145.996094 80.488281 147.277344 80.847656 C 147.636719 80.949219 147.789062 80.394531 147.429688 80.292969 Z M 147.429688 80.292969 " fill-opacity="1" fill-rule="nonzero"/><path fill="#d59839" d="M 173.953125 79.15625 C 172.828125 78.949219 171.703125 78.738281 170.578125 78.53125 C 170.035156 78.429688 169.515625 78.367188 168.96875 78.480469 C 168.539062 78.570312 168.167969 78.660156 167.753906 78.566406 C 167.550781 75.875 167.25 73.195312 166.855469 70.527344 C 166.800781 70.164062 166.246094 70.320312 166.300781 70.683594 C 166.675781 73.226562 166.960938 75.78125 167.160156 78.347656 C 166.542969 78.070312 165.921875 77.730469 165.238281 77.976562 C 165.023438 78.054688 164.832031 78.1875 164.617188 78.265625 C 164.359375 78.363281 164.085938 78.363281 163.816406 78.335938 C 163.273438 78.277344 162.734375 78.113281 162.203125 77.992188 C 160.933594 77.699219 159.664062 77.40625 158.394531 77.113281 C 158.035156 77.027344 157.882812 77.582031 158.242188 77.667969 C 159.371094 77.925781 160.503906 78.1875 161.632812 78.449219 C 162.179688 78.574219 162.722656 78.710938 163.273438 78.824219 C 163.761719 78.925781 164.289062 78.992188 164.769531 78.820312 C 165.207031 78.667969 165.53125 78.386719 166.019531 78.5 C 166.421875 78.597656 166.785156 78.808594 167.164062 78.96875 C 167.570312 79.136719 167.976562 79.238281 168.421875 79.179688 C 168.65625 79.144531 168.886719 79.085938 169.121094 79.035156 C 169.410156 78.976562 169.699219 78.976562 169.988281 79.011719 C 170.617188 79.09375 171.238281 79.238281 171.859375 79.351562 C 172.503906 79.472656 173.152344 79.59375 173.800781 79.710938 C 174.160156 79.78125 174.316406 79.226562 173.953125 79.15625 Z M 173.953125 79.15625 " fill-opacity="1" fill-rule="nonzero"/><path fill="#d59839" d="M 165.792969 68.820312 C 166.890625 65.023438 168.507812 61.382812 170.589844 58.023438 C 170.488281 57.945312 170.386719 57.871094 170.28125 57.800781 C 168.867188 60.078125 167.660156 62.488281 166.683594 64.988281 C 166.207031 66.214844 165.785156 67.457031 165.421875 68.71875 C 165.355469 68.957031 165.722656 69.058594 165.792969 68.820312 Z M 165.792969 68.820312 " fill-opacity="1" fill-rule="nonzero"/><path fill="#d59839" d="M 145.964844 66.730469 C 145.996094 66.96875 146.378906 66.972656 146.347656 66.730469 C 146.054688 64.445312 145.964844 62.140625 146.078125 59.839844 C 145.929688 59.988281 145.796875 60.140625 145.671875 60.296875 C 145.625 61.515625 145.636719 62.734375 145.707031 63.953125 C 145.757812 64.878906 145.847656 65.808594 145.964844 66.730469 Z M 145.964844 66.730469 " fill-opacity="1" fill-rule="nonzero"/><path fill="#d59839" d="M 162.433594 80.621094 C 162.308594 79.796875 162.121094 78.984375 161.867188 78.191406 C 161.792969 77.957031 161.425781 78.058594 161.5 78.292969 C 162.597656 81.773438 162.445312 85.585938 161.074219 88.964844 C 160.980469 89.195312 161.351562 89.292969 161.441406 89.066406 C 162.523438 86.402344 162.855469 83.464844 162.433594 80.621094 Z M 162.433594 80.621094 " fill-opacity="1" fill-rule="nonzero"/><path fill="#d59839" d="M 137.210938 85.671875 L 137.578125 85.773438 C 138.574219 82.886719 138.800781 79.753906 138.230469 76.746094 C 138.113281 76.117188 137.953125 75.496094 137.761719 74.886719 C 137.613281 74.835938 137.460938 74.78125 137.308594 74.730469 C 138.339844 77.871094 138.429688 81.300781 137.574219 84.5 C 137.46875 84.894531 137.34375 85.285156 137.210938 85.671875 Z M 137.210938 85.671875 " fill-opacity="1" fill-rule="nonzero"/><path fill="#d59839" d="M 165.425781 93.363281 C 164.265625 93.902344 163.019531 93.167969 161.96875 92.714844 C 161.390625 92.464844 160.808594 92.296875 160.183594 92.234375 C 159.535156 92.167969 158.882812 92.175781 158.234375 92.179688 C 156.886719 92.179688 155.535156 92.21875 154.1875 92.113281 C 152.871094 92.011719 151.597656 91.664062 150.285156 91.523438 C 149.03125 91.390625 147.667969 91.519531 146.640625 92.3125 C 146.445312 92.460938 146.636719 92.796875 146.832031 92.644531 C 147.765625 91.925781 148.964844 91.789062 150.105469 91.890625 C 151.414062 92.003906 152.6875 92.367188 154 92.480469 C 155.34375 92.601562 156.695312 92.566406 158.046875 92.5625 C 158.726562 92.558594 159.414062 92.546875 160.089844 92.605469 C 160.738281 92.664062 161.335938 92.851562 161.929688 93.113281 C 163.085938 93.628906 164.359375 94.28125 165.617188 93.695312 C 165.839844 93.589844 165.648438 93.261719 165.425781 93.363281 Z M 165.425781 93.363281 " fill-opacity="1" fill-rule="nonzero"/><path fill="#e6916b" d="M 160.445312 42.042969 C 159.816406 41.203125 158.675781 41.289062 158.078125 41.726562 C 157.761719 41.957031 157.597656 42.289062 157.515625 42.550781 C 157.507812 42.609375 157.503906 42.667969 157.5 42.726562 C 157.472656 42.949219 157.40625 43.234375 157.121094 43.203125 C 156.84375 43.175781 156.632812 42.945312 156.515625 42.710938 C 156.234375 42.152344 156.257812 41.492188 155.980469 40.933594 C 155.820312 40.621094 155.5 40.464844 155.226562 40.261719 C 154.921875 40.03125 154.699219 39.75 154.589844 39.378906 C 154.5 39.0625 154.484375 38.730469 154.375 38.417969 C 154.253906 38.058594 153.960938 37.8125 153.574219 37.792969 C 153.132812 37.769531 152.714844 37.980469 152.273438 37.917969 C 151.941406 37.871094 151.695312 37.644531 151.480469 37.398438 C 151.28125 37.175781 151.09375 36.890625 150.824219 36.742188 C 150.574219 36.605469 150.289062 36.699219 150.074219 36.863281 C 149.582031 37.242188 149.335938 37.855469 148.957031 38.332031 C 148.664062 38.695312 148.191406 39.019531 147.707031 38.859375 C 147.515625 38.796875 147.335938 38.667969 147.167969 38.515625 C 146.960938 39.527344 146.59375 41.535156 146.664062 42.625 C 146.785156 44.488281 146.882812 49.484375 149.25 51.746094 C 150.5 52.941406 152.53125 53.234375 153.730469 52.964844 C 157.417969 52.136719 159.070312 49.34375 159.253906 46.46875 C 159.253906 46.46875 162.289062 44.5 160.445312 42.042969 Z M 160.445312 42.042969 " fill-opacity="1" fill-rule="nonzero"/><path fill="#1a1a1a" d="M 152.902344 43.28125 C 152.992188 43.167969 153.105469 43.101562 153.238281 43.105469 C 153.253906 43.101562 153.269531 43.101562 153.28125 43.097656 C 153.289062 43.097656 153.292969 43.097656 153.296875 43.097656 C 153.304688 43.097656 153.308594 43.097656 153.3125 43.097656 C 153.773438 43.097656 153.960938 43.703125 153.777344 44.074219 C 153.757812 44.160156 153.722656 44.238281 153.652344 44.292969 C 153.585938 44.347656 153.496094 44.378906 153.410156 44.382812 C 153.402344 44.386719 153.394531 44.394531 153.386719 44.394531 C 153.179688 44.457031 153.019531 44.351562 152.917969 44.179688 C 152.699219 43.945312 152.6875 43.539062 152.902344 43.28125 Z M 152.902344 43.28125 " fill-opacity="1" fill-rule="nonzero"/><path fill="#1a1a1a" d="M 147.199219 44.101562 C 147.359375 43.832031 147.71875 43.753906 147.972656 43.9375 C 147.996094 43.953125 148.015625 43.972656 148.035156 43.992188 C 148.101562 44.058594 148.144531 44.144531 148.148438 44.242188 C 148.152344 44.253906 148.152344 44.261719 148.152344 44.273438 C 148.152344 44.277344 148.152344 44.28125 148.152344 44.285156 C 148.144531 44.457031 148.132812 44.632812 148.042969 44.785156 C 147.875 45.078125 147.480469 45.070312 147.257812 44.84375 C 147.066406 44.648438 147.0625 44.332031 147.199219 44.101562 Z M 147.199219 44.101562 " fill-opacity="1" fill-rule="nonzero"/><path fill="#d15c48" d="M 149.898438 47.332031 C 149.90625 47.175781 150.042969 47.046875 150.203125 47.054688 C 150.355469 47.0625 150.511719 47.074219 150.667969 47.082031 C 150.824219 47.089844 150.949219 47.230469 150.941406 47.386719 C 150.933594 47.542969 150.792969 47.671875 150.636719 47.664062 C 150.480469 47.65625 150.328125 47.644531 150.171875 47.636719 C 150.015625 47.625 149.890625 47.488281 149.898438 47.332031 Z M 149.898438 47.332031 " fill-opacity="1" fill-rule="nonzero"/><path fill="#bb2328" d="M 155.1875 41.671875 C 154.363281 41.25 153.433594 41.054688 152.507812 41.132812 C 152.351562 41.144531 152.21875 41.253906 152.21875 41.417969 C 152.21875 41.5625 152.351562 41.71875 152.507812 41.707031 C 153.332031 41.636719 154.160156 41.789062 154.898438 42.167969 C 155.226562 42.335938 155.519531 41.839844 155.1875 41.671875 Z M 155.1875 41.671875 " fill-opacity="1" fill-rule="nonzero"/><path fill="#bb2328" d="M 148.023438 42.222656 C 147.972656 42.066406 147.828125 41.992188 147.667969 42.023438 C 147.171875 42.117188 146.707031 42.367188 146.347656 42.71875 C 146.238281 42.824219 146.234375 43.023438 146.347656 43.125 C 146.460938 43.230469 146.628906 43.230469 146.753906 43.125 C 147.25 42.703125 147.710938 42.597656 147.820312 42.578125 C 147.96875 42.546875 148.066406 42.363281 148.023438 42.222656 Z M 148.023438 42.222656 " fill-opacity="1" fill-rule="nonzero"/><path fill="#ffffff" d="M 150.121094 49.023438 C 150.121094 49.023438 151.835938 48.121094 152.214844 48.691406 C 152.59375 49.261719 152.023438 50.214844 151.5 50.40625 C 150.976562 50.59375 150.121094 49.023438 150.121094 49.023438 Z M 150.121094 49.023438 " fill-opacity="1" fill-rule="nonzero"/><g clip-path="url(#4a826db8f0)"><path fill="#4a3333" d="M 77.371094 27.363281 C 77.292969 26.34375 77.015625 25.355469 76.542969 24.449219 C 76.371094 24.121094 75.875 24.414062 76.046875 24.742188 C 76.789062 26.171875 77.011719 27.867188 76.632812 29.4375 C 76.546875 29.792969 76.429688 30.144531 76.28125 30.484375 C 76.433594 29.90625 76.503906 29.300781 76.507812 28.703125 C 76.519531 26.796875 75.96875 24.6875 74.277344 23.609375 C 72.628906 22.554688 70.402344 22.800781 69.023438 24.191406 C 68.875 24.34375 68.738281 24.554688 68.550781 24.65625 C 68.316406 24.785156 68.007812 24.609375 67.785156 24.527344 C 67.257812 24.339844 66.730469 24.152344 66.175781 24.070312 C 65.195312 23.929688 64.269531 24.230469 63.617188 24.988281 C 63.324219 25.328125 63.09375 25.714844 62.910156 26.125 C 62.730469 26.527344 62.621094 26.953125 62.460938 27.359375 C 62.390625 27.539062 62.292969 27.726562 62.109375 27.8125 C 61.886719 27.921875 61.605469 27.878906 61.367188 27.886719 C 60.90625 27.894531 60.484375 28.035156 60.113281 28.316406 C 59.277344 28.953125 59 29.988281 58.867188 30.984375 C 58.710938 32.128906 58.632812 33.292969 58.726562 34.449219 C 58.886719 36.445312 59.578125 38.464844 61.042969 39.878906 C 62.414062 41.207031 64.378906 41.800781 66.261719 41.59375 C 68.105469 41.390625 69.777344 40.433594 70.960938 39.007812 C 71.550781 38.300781 72.011719 37.503906 72.335938 36.644531 C 72.6875 35.699219 72.835938 34.699219 72.957031 33.707031 C 73.445312 33.664062 73.925781 33.53125 74.371094 33.320312 C 74.480469 33.324219 74.566406 33.269531 74.621094 33.195312 C 75.09375 32.9375 75.523438 32.59375 75.878906 32.191406 C 77.015625 30.882812 77.496094 29.074219 77.371094 27.363281 Z M 73.046875 33.117188 C 73.039062 33.117188 73.035156 33.117188 73.03125 33.117188 C 73.035156 33.101562 73.039062 33.101562 73.046875 33.117188 Z M 73.046875 33.117188 " fill-opacity="1" fill-rule="nonzero"/></g><path fill="#e6916b" d="M 62.78125 41.636719 C 62.78125 41.792969 61.875 44.914062 61.875 44.914062 C 61.875 44.914062 60.886719 47.109375 60.886719 48.007812 C 60.886719 48.902344 66.097656 52.691406 66.886719 53.113281 C 67.675781 53.535156 68.570312 51.058594 68.570312 51.058594 L 67.941406 47.480469 L 69.203125 43.371094 Z M 62.78125 41.636719 " fill-opacity="1" fill-rule="nonzero"/><path fill="#1a1a1a" d="M 63.539062 41.839844 C 63.359375 43.085938 63.5 44.4375 64.402344 45.386719 C 65.011719 46.019531 65.796875 46.347656 66.621094 46.597656 C 67.238281 46.785156 67.546875 46.808594 68.125 46.882812 L 69.203125 43.371094 Z M 63.539062 41.839844 " fill-opacity="1" fill-rule="nonzero"/><path fill="#e6916b" d="M 84.34375 55.757812 C 84.34375 55.757812 86.953125 52.167969 87.800781 51.582031 C 88.648438 50.996094 91.0625 49.492188 91.714844 48.839844 C 92.367188 48.1875 93.515625 48.746094 93.476562 49.570312 C 93.410156 50.898438 91.089844 52.921875 91.089844 52.921875 C 91.089844 52.921875 94.835938 53.425781 96.910156 53.425781 C 98.984375 53.425781 101.546875 53.023438 101.152344 54.269531 C 100.957031 54.886719 99.664062 55.113281 99.664062 55.113281 C 99.664062 55.113281 99.242188 56.472656 98.59375 56.636719 C 97.945312 56.796875 97.558594 57.152344 97.203125 57.574219 C 96.84375 57.996094 96.328125 58.351562 95.550781 58.710938 C 94.773438 59.066406 93.410156 59.324219 92.050781 59.550781 C 90.691406 59.777344 88.519531 61.496094 88.519531 61.496094 Z M 84.34375 55.757812 " fill-opacity="1" fill-rule="nonzero"/><g clip-path="url(#65e90a6ed2)"><path fill="#837894" d="M 107.023438 200.734375 C 107.023438 199.167969 92.074219 199.019531 72.816406 199.019531 C 53.5625 199.019531 45.273438 199.5625 45.507812 200.960938 C 45.65625 201.84375 55.234375 202.242188 74.492188 202.324219 C 105.242188 202.453125 107.019531 201.730469 107.023438 200.734375 Z M 107.023438 200.734375 " fill-opacity="1" fill-rule="nonzero"/></g><path fill="#f19d7d" d="M 83.085938 185.59375 C 84.566406 185.25 84.824219 184.972656 86.3125 184.660156 C 88.058594 184.296875 89.78125 183.671875 91.542969 183.347656 C 91.492188 184.824219 91.261719 186.3125 91.417969 187.785156 C 91.605469 189.574219 93.011719 191.175781 94.246094 192.308594 C 95.714844 193.65625 97.5625 194.816406 99.417969 195.582031 C 102.285156 196.761719 104.644531 197.269531 105.320312 198.785156 C 105.964844 200.242188 105.488281 200.472656 104.980469 200.640625 C 104.476562 200.8125 85.945312 201.148438 84.09375 200.136719 C 82.585938 199.316406 82.25 197.722656 82.484375 194.214844 C 82.585938 192.675781 83.1875 192.136719 83.085938 185.59375 Z M 83.085938 185.59375 " fill-opacity="1" fill-rule="nonzero"/><path fill="#6c4e4e" d="M 81.585938 198.628906 C 81.800781 197.308594 81.894531 193.914062 82.484375 194.214844 C 84.40625 195.097656 85.359375 195.734375 87.339844 194.714844 C 88.472656 194.128906 87.933594 192.941406 88.761719 192.039062 C 89.394531 191.347656 93.183594 190.324219 93.804688 190.871094 C 95.472656 192.335938 97.945312 194.976562 99.417969 195.582031 C 102.285156 196.761719 104.644531 197.269531 105.320312 198.785156 C 105.570312 199.351562 105.652344 199.734375 105.625 200 C 105.585938 200.414062 105.289062 200.539062 104.980469 200.640625 C 104.476562 200.808594 84.175781 201.652344 82.320312 200.640625 C 81.714844 200.308594 81.4375 199.5625 81.585938 198.628906 Z M 81.585938 198.628906 " fill-opacity="1" fill-rule="nonzero"/><path fill="#ffffff" d="M 89.773438 199.902344 C 86.949219 199.851562 83.328125 199.34375 81.550781 199.070312 C 81.539062 199.792969 81.8125 200.363281 82.320312 200.640625 C 84.175781 201.652344 104.476562 200.8125 104.980469 200.640625 C 105.289062 200.539062 105.585938 200.414062 105.625 200 C 105.632812 199.910156 105.628906 199.808594 105.613281 199.691406 C 104.125 199.726562 93.394531 199.972656 89.773438 199.902344 Z M 89.773438 199.902344 " fill-opacity="1" fill-rule="nonzero"/><path fill="#6c4e4e" d="M 48.296875 197.382812 C 48.296875 197.382812 49.261719 194.117188 49.605469 193.480469 C 49.945312 192.84375 50.4375 192.402344 50.875 192.304688 C 51.316406 192.207031 51.511719 193.871094 51.316406 195.585938 C 51.121094 197.296875 48.296875 197.382812 48.296875 197.382812 Z M 48.296875 197.382812 " fill-opacity="1" fill-rule="nonzero"/><path fill="#f19d7d" d="M 48.023438 200.445312 C 48.027344 200.46875 48.035156 200.488281 48.046875 200.511719 C 48.078125 200.59375 48.117188 200.675781 48.167969 200.75 C 48.1875 200.78125 48.207031 200.808594 48.230469 200.835938 C 48.609375 201.3125 61.285156 201.121094 61.789062 200.445312 C 61.832031 200.386719 60.578125 196.40625 60.546875 196.371094 C 59.308594 194.917969 59.082031 192.15625 59.132812 190.34375 C 59.183594 188.351562 59.417969 187.1875 59.808594 185.230469 C 57.144531 185.023438 54.484375 184.816406 51.820312 184.605469 C 52.054688 184.625 51.765625 188.703125 51.683594 189.070312 C 51.335938 190.617188 50.816406 192.128906 50.128906 193.558594 C 49.777344 194.28125 49.375 194.90625 49.027344 195.554688 C 48.722656 196.117188 48.457031 196.695312 48.296875 197.382812 C 48.195312 197.820312 48.015625 198.46875 47.945312 199.113281 C 47.886719 199.589844 47.890625 200.066406 48.023438 200.445312 Z M 48.023438 200.445312 " fill-opacity="1" fill-rule="nonzero"/><path fill="#6c4e4e" d="M 48.023438 200.445312 C 48.027344 200.46875 48.035156 200.488281 48.046875 200.511719 C 48.078125 200.59375 48.117188 200.675781 48.167969 200.75 C 48.1875 200.78125 48.207031 200.808594 48.230469 200.835938 C 48.535156 201.21875 50.046875 201.105469 50.464844 201.128906 C 51.996094 201.21875 53.179688 201.253906 54.714844 201.265625 C 56.261719 201.28125 57.808594 201.273438 59.351562 201.195312 C 59.90625 201.167969 60.464844 201.140625 61.015625 201.066406 C 61.753906 200.96875 62.257812 200.6875 62.246094 199.808594 C 62.238281 199.363281 62.074219 198.9375 61.894531 198.53125 C 61.707031 198.097656 60.996094 196.636719 60.636719 196.332031 C 60.433594 196.160156 58.390625 192.746094 56.054688 192.378906 C 51.863281 191.726562 49.601562 194.542969 49.027344 195.554688 C 48.722656 196.117188 48.457031 196.695312 48.296875 197.382812 C 48.195312 197.820312 48.015625 198.46875 47.945312 199.113281 C 47.925781 199.558594 47.886719 200.039062 48.023438 200.445312 Z M 48.023438 200.445312 " fill-opacity="1" fill-rule="nonzero"/><path fill="#ffffff" d="M 59.351562 201.195312 C 59.90625 201.167969 60.464844 201.136719 61.015625 201.066406 C 61.753906 200.96875 62.257812 200.6875 62.246094 199.808594 C 62.246094 199.796875 62.242188 199.789062 62.242188 199.777344 C 59.855469 199.820312 52.882812 199.917969 47.925781 199.707031 C 47.925781 199.964844 47.945312 200.214844 48.023438 200.445312 C 48.027344 200.46875 48.035156 200.488281 48.046875 200.511719 C 48.078125 200.59375 48.117188 200.675781 48.167969 200.75 C 48.1875 200.78125 48.207031 200.808594 48.230469 200.835938 C 48.535156 201.21875 50.046875 201.105469 50.464844 201.128906 C 51.996094 201.21875 53.179688 201.253906 54.714844 201.265625 C 56.261719 201.28125 57.808594 201.273438 59.351562 201.195312 Z M 59.351562 201.195312 " fill-opacity="1" fill-rule="nonzero"/><path fill="#6c4e4e" d="M 50.40625 192.949219 C 50.40625 192.949219 50.03125 193.628906 50.816406 193.484375 C 51.597656 193.335938 51.609375 192.207031 52.636719 191.863281 C 53.664062 191.523438 57.1875 191.816406 58.070312 192.257812 C 58.949219 192.695312 60.464844 196.417969 60.464844 196.417969 C 60.464844 196.417969 54.398438 195.535156 52.492188 195.632812 C 50.582031 195.730469 49.210938 196.171875 49.210938 196.171875 L 48.539062 196.589844 C 48.539062 196.589844 49.179688 193.796875 50.40625 192.949219 Z M 50.40625 192.949219 " fill-opacity="1" fill-rule="nonzero"/><path fill="#6168a7" d="M 48.503906 188.574219 C 48.550781 189.65625 56.359375 191.132812 60.433594 191.574219 C 61.617188 191.703125 62.648438 191.609375 62.785156 190.425781 C 63.570312 183.746094 66.03125 168.503906 68.289062 153.226562 C 69.839844 142.75 70.839844 134.589844 72.015625 126.761719 C 76.121094 152.851562 76.921875 190.152344 77.550781 191.40625 C 78.257812 192.824219 91.671875 186.054688 91.671875 186.054688 C 91.671875 186.054688 92.25 153.84375 91.363281 139.492188 C 90.476562 125.140625 86.304688 94.558594 86.304688 94.558594 L 54.875 95.132812 C 54.875 95.132812 48.445312 187.203125 48.503906 188.574219 Z M 48.503906 188.574219 " fill-opacity="1" fill-rule="nonzero"/><path fill="#333a74" d="M 72.238281 127.796875 C 72.21875 127.796875 72.203125 127.796875 72.1875 127.792969 C 71.992188 127.765625 71.859375 127.585938 71.886719 127.394531 L 74.898438 106.132812 C 74.925781 105.9375 75.101562 105.800781 75.296875 105.828125 C 75.492188 105.855469 75.625 106.035156 75.597656 106.230469 L 72.585938 127.492188 C 72.5625 127.667969 72.410156 127.796875 72.238281 127.796875 Z M 72.238281 127.796875 " fill-opacity="1" fill-rule="nonzero"/><path fill="#333a74" d="M 74.308594 111.757812 C 74.855469 111.085938 75.5625 110.539062 76.128906 109.875 C 76.738281 109.152344 77.265625 108.371094 77.734375 107.550781 C 77.925781 107.214844 78.4375 107.515625 78.253906 107.851562 C 77.40625 109.382812 76.1875 111.289062 74.636719 112.179688 C 74.355469 112.339844 74.121094 111.984375 74.308594 111.757812 Z M 74.308594 111.757812 " fill-opacity="1" fill-rule="nonzero"/><path fill="#333a74" d="M 57.566406 108.15625 C 59.566406 106.703125 60.945312 104.726562 62.292969 102.683594 C 62.515625 102.347656 63.0625 102.660156 62.839844 103.003906 C 61.46875 105.117188 60.035156 107.316406 57.898438 108.726562 C 57.539062 108.964844 57.226562 108.402344 57.566406 108.15625 Z M 57.566406 108.15625 " fill-opacity="1" fill-rule="nonzero"/><path fill="#333a74" d="M 74.296875 119.226562 C 76.015625 127.050781 77.457031 134.9375 78.625 142.863281 C 78.949219 145.058594 79.25 147.261719 79.527344 149.464844 C 79.554688 149.683594 79.210938 149.683594 79.183594 149.464844 C 78.160156 141.5625 76.894531 133.695312 75.347656 125.878906 C 74.914062 123.6875 74.460938 121.496094 73.988281 119.3125 C 73.945312 119.113281 74.253906 119.027344 74.296875 119.226562 Z M 74.296875 119.226562 " fill-opacity="1" fill-rule="nonzero"/><path fill="#333a74" d="M 79.515625 153.359375 C 79.503906 153.148438 79.824219 153.152344 79.839844 153.359375 C 80.40625 161.695312 80.703125 170.050781 80.726562 178.40625 C 80.734375 180.78125 80.714844 183.15625 80.671875 185.53125 C 80.664062 185.742188 80.34375 185.742188 80.34375 185.53125 C 80.445312 177.175781 80.335938 168.820312 79.929688 160.46875 C 79.8125 158.097656 79.675781 155.726562 79.515625 153.359375 Z M 79.515625 153.359375 " fill-opacity="1" fill-rule="nonzero"/><path fill="#b3aa78" d="M 48.625 60.523438 C 48.625 60.523438 51.230469 74.328125 52.097656 80.203125 C 52.96875 86.078125 51.449219 95.867188 51.554688 96.554688 C 51.664062 97.238281 54.378906 98.804688 54.378906 98.804688 C 54.378906 98.804688 57.203125 96.945312 62.632812 96.75 C 68.066406 96.554688 71.757812 97.925781 77.296875 97.925781 C 82.835938 97.925781 86.171875 97.484375 86.582031 96.949219 C 89.511719 93.128906 86.203125 90.1875 85.875 88.230469 C 85.550781 86.273438 83.921875 72.273438 83.921875 72.273438 Z M 48.625 60.523438 " fill-opacity="1" fill-rule="nonzero"/><path fill="#103a35" d="M 62.453125 86.902344 C 62.453125 86.902344 67.691406 85.90625 71.058594 85.71875 C 74.425781 85.53125 74.273438 85.246094 74.273438 85.246094 L 69.667969 84.21875 Z M 62.453125 86.902344 " fill-opacity="1" fill-rule="nonzero"/><path fill="#e6916b" d="M 71.636719 76.835938 C 71.636719 76.835938 64.925781 77.15625 64.113281 76.988281 C 63.300781 76.820312 62.269531 77.113281 62.195312 77.589844 C 62.121094 78.066406 62.113281 78.605469 62.820312 78.789062 C 63.527344 78.96875 64.441406 79.234375 64.441406 79.234375 C 64.441406 79.234375 61.273438 80.332031 60.625 81.285156 C 59.976562 82.242188 59.164062 83.226562 59.722656 83.953125 C 59.875 84.152344 60.488281 84.039062 60.488281 84.039062 C 60.488281 84.039062 60.59375 84.617188 61.328125 84.507812 C 61.328125 84.507812 61.359375 85.4375 62.199219 85.5625 C 62.199219 85.5625 61.570312 86.15625 61.808594 86.554688 C 62.042969 86.949219 62.910156 87.03125 64.429688 86.414062 C 65.953125 85.796875 65.28125 86.296875 67.496094 85.757812 C 69.707031 85.21875 70.90625 85.328125 72.558594 84.371094 C 74.210938 83.414062 75.898438 80.261719 75.292969 78.558594 C 74.683594 76.855469 71.636719 76.835938 71.636719 76.835938 Z M 71.636719 76.835938 " fill-opacity="1" fill-rule="nonzero"/><g clip-path="url(#4892a5af48)"><path fill="#b3aa78" d="M 82.90625 55.757812 C 82.90625 55.757812 83.496094 55.285156 84.34375 55.300781 C 86.535156 55.351562 90.234375 61.097656 89.800781 62.246094 C 89.367188 63.398438 88.933594 63.953125 88.152344 64.671875 C 87.371094 65.390625 87.179688 65.714844 87.179688 65.714844 C 87.179688 65.714844 88.5 67.585938 90 70.914062 C 91.5 74.242188 89.785156 78.660156 85.21875 81.464844 C 83.761719 82.359375 81.488281 82.601562 79.726562 83.035156 C 78.1875 83.414062 76.394531 84.179688 75.136719 84.324219 C 73.328125 84.53125 72.632812 84.347656 72.632812 84.347656 C 72.632812 84.347656 73.90625 82.585938 74.167969 80.953125 C 74.425781 79.320312 73.121094 77.691406 73.121094 77.691406 C 73.121094 77.691406 69.730469 78.734375 66.535156 76.058594 C 63.335938 73.382812 47.074219 65.265625 46.222656 60.304688 C 45.375 55.34375 46.679688 53.0625 47.726562 51.558594 C 48.636719 50.246094 57.859375 49.15625 59.503906 47.851562 C 59.742188 47.660156 60.0625 46.445312 60.113281 46.285156 C 60.433594 45.3125 61.4375 45.878906 61.4375 45.878906 C 61.929688 46.105469 62.203125 46.28125 62.683594 46.457031 C 63.296875 46.675781 63.859375 46.6875 64.707031 47.339844 C 65.554688 47.992188 67.246094 51.5625 67.246094 51.5625 C 67.246094 51.5625 67.25 48.1875 67.640625 47.664062 C 68.035156 47.144531 68.722656 46.765625 69.273438 46.753906 C 69.402344 46.75 69.664062 48.320312 69.796875 48.644531 C 69.925781 48.972656 76.214844 50.578125 77.519531 51.164062 C 78.824219 51.753906 81.230469 57.730469 81.976562 56.515625 C 82.484375 55.6875 82.445312 55.96875 82.90625 55.757812 Z M 82.90625 55.757812 " fill-opacity="1" fill-rule="nonzero"/></g><path fill="#e6916b" d="M 73.273438 31.644531 C 71.546875 32.476562 68.535156 32.519531 66.535156 32.136719 C 66.394531 32.304688 66.246094 32.464844 66.085938 32.613281 C 65.730469 32.941406 65.277344 33.230469 64.796875 33.269531 C 64.042969 34.628906 63.476562 35.191406 63.476562 35.191406 C 63.476562 35.191406 63.441406 34.464844 63.074219 34.046875 C 62.503906 33.398438 61.21875 32.953125 60.363281 33.894531 C 59.152344 35.21875 59.460938 36.976562 60.109375 37.871094 C 60.574219 38.511719 61.324219 38.519531 61.324219 38.519531 C 61.230469 41.398438 62.609375 44.335938 66.199219 45.515625 C 67.367188 45.898438 69.90625 46.285156 71.042969 45.414062 C 73.199219 43.765625 74 36.78125 74.222656 35.898438 C 74.421875 35.125 74.355469 33.816406 74.253906 32.765625 C 73.972656 32.355469 73.648438 31.976562 73.273438 31.644531 Z M 73.273438 31.644531 " fill-opacity="1" fill-rule="nonzero"/><path fill="#1a1a1a" d="M 67.953125 35.953125 C 67.875 35.835938 67.765625 35.757812 67.636719 35.746094 C 67.621094 35.742188 67.605469 35.738281 67.589844 35.738281 C 67.585938 35.734375 67.582031 35.734375 67.574219 35.730469 C 67.570312 35.730469 67.566406 35.734375 67.558594 35.734375 C 67.105469 35.6875 66.859375 36.273438 67.003906 36.660156 C 67.015625 36.746094 67.042969 36.828125 67.109375 36.890625 C 67.171875 36.953125 67.253906 36.988281 67.34375 37.003906 C 67.347656 37.007812 67.355469 37.015625 67.363281 37.015625 C 67.566406 37.097656 67.734375 37.007812 67.847656 36.847656 C 68.089844 36.636719 68.140625 36.234375 67.953125 35.953125 Z M 67.953125 35.953125 " fill-opacity="1" fill-rule="nonzero"/><path fill="#1a1a1a" d="M 73.589844 36.929688 C 73.453125 36.644531 73.105469 36.535156 72.832031 36.691406 C 72.808594 36.707031 72.785156 36.722656 72.765625 36.742188 C 72.695312 36.796875 72.644531 36.878906 72.628906 36.976562 C 72.625 36.988281 72.625 36.996094 72.621094 37.007812 C 72.621094 37.011719 72.621094 37.015625 72.621094 37.019531 C 72.613281 37.191406 72.609375 37.367188 72.683594 37.527344 C 72.820312 37.835938 73.214844 37.867188 73.457031 37.660156 C 73.667969 37.484375 73.703125 37.171875 73.589844 36.929688 Z M 73.589844 36.929688 " fill-opacity="1" fill-rule="nonzero"/><path fill="#d15c48" d="M 70.554688 40.273438 C 70.5625 40.117188 70.4375 39.976562 70.277344 39.96875 C 70.125 39.964844 69.96875 39.957031 69.8125 39.953125 C 69.65625 39.945312 69.515625 40.074219 69.507812 40.230469 C 69.503906 40.386719 69.628906 40.527344 69.785156 40.535156 C 69.941406 40.539062 70.097656 40.546875 70.253906 40.550781 C 70.410156 40.558594 70.546875 40.433594 70.554688 40.273438 Z M 70.554688 40.273438 " fill-opacity="1" fill-rule="nonzero"/><path fill="#db805c" d="M 100.109375 54.550781 C 98.996094 55.152344 97.609375 55.023438 96.386719 55.039062 C 94.984375 55.058594 93.582031 55.074219 92.179688 55.09375 C 91.808594 55.097656 91.808594 55.671875 92.179688 55.667969 L 96.574219 55.613281 C 97.859375 55.597656 99.234375 55.675781 100.398438 55.046875 C 100.722656 54.871094 100.433594 54.375 100.109375 54.550781 Z M 100.109375 54.550781 " fill-opacity="1" fill-rule="nonzero"/><path fill="#db805c" d="M 91.089844 52.515625 C 90.980469 52.410156 90.796875 52.398438 90.683594 52.515625 C 90.242188 52.980469 89.828125 53.472656 89.433594 53.980469 C 89.34375 54.101562 89.410156 54.308594 89.539062 54.375 C 89.691406 54.457031 89.832031 54.398438 89.929688 54.273438 C 89.933594 54.269531 89.9375 54.265625 89.9375 54.261719 C 89.953125 54.246094 89.964844 54.230469 89.976562 54.214844 C 89.996094 54.1875 90.019531 54.160156 90.039062 54.132812 C 90.085938 54.074219 90.132812 54.015625 90.179688 53.957031 C 90.277344 53.835938 90.378906 53.71875 90.476562 53.601562 C 90.675781 53.367188 90.882812 53.140625 91.089844 52.921875 C 91.195312 52.8125 91.207031 52.621094 91.089844 52.515625 Z M 91.089844 52.515625 " fill-opacity="1" fill-rule="nonzero"/><path fill="#db805c" d="M 63.742188 81.0625 C 62.289062 81.4375 61.492188 82.332031 60.636719 83.570312 C 60.425781 83.871094 60.402344 84.199219 60.613281 83.894531 C 61.375 82.789062 62.523438 81.96875 63.824219 81.628906 C 63.976562 81.589844 64.09375 81.46875 64.066406 81.304688 C 64.046875 81.164062 63.894531 81.019531 63.742188 81.0625 Z M 63.742188 81.0625 " fill-opacity="1" fill-rule="nonzero"/><path fill="#db805c" d="M 65.59375 83.890625 C 65.488281 83.757812 65.320312 83.765625 65.1875 83.847656 C 64.621094 84.199219 64.28125 84.472656 63.664062 84.726562 C 63.066406 84.972656 62.632812 85.316406 62.097656 85.691406 C 61.792969 85.90625 61.6875 86.195312 61.992188 85.984375 C 62.515625 85.617188 63.179688 85.480469 63.761719 85.230469 C 64.382812 84.96875 64.976562 84.652344 65.546875 84.296875 C 65.679688 84.210938 65.679688 84.003906 65.59375 83.890625 Z M 65.59375 83.890625 " fill-opacity="1" fill-rule="nonzero"/><path fill="#db805c" d="M 64.367188 82.339844 C 63.269531 82.808594 62.414062 83.527344 61.519531 84.320312 C 61.242188 84.566406 61.378906 84.65625 61.65625 84.410156 C 62.519531 83.644531 63.542969 83.316406 64.601562 82.867188 C 64.941406 82.722656 64.710938 82.195312 64.367188 82.339844 Z M 64.367188 82.339844 " fill-opacity="1" fill-rule="nonzero"/><path fill="#978b54" d="M 82.722656 55.832031 C 81.605469 56.160156 81.058594 57.242188 80.636719 58.234375 C 80.425781 58.730469 80.210938 59.242188 79.886719 59.675781 C 79.722656 59.890625 79.523438 60.085938 79.292969 60.226562 C 79.011719 60.398438 78.695312 60.488281 78.398438 60.632812 C 77.863281 60.894531 77.480469 61.351562 77.144531 61.832031 C 77.140625 61.835938 77.136719 61.84375 77.128906 61.851562 C 77.125 61.824219 76.59375 60.585938 75.816406 58.746094 C 75.753906 58.601562 75.542969 58.570312 75.421875 58.640625 C 75.273438 58.726562 75.257812 58.894531 75.320312 59.035156 C 76.097656 60.878906 76.753906 62.398438 76.683594 62.496094 C 76.46875 62.78125 76.261719 62.949219 75.914062 63.035156 C 75.347656 63.179688 74.808594 63.359375 74.296875 63.652344 C 74.082031 63.773438 73.394531 64.214844 72.644531 64.894531 C 69.015625 63.328125 65.53125 61.433594 62.25 59.230469 C 61.3125 58.601562 60.390625 57.945312 59.488281 57.269531 C 59.191406 57.046875 58.90625 57.546875 59.199219 57.765625 C 62.394531 60.160156 65.808594 62.261719 69.394531 64.027344 C 70.316406 64.480469 71.253906 64.910156 72.199219 65.320312 C 71.550781 65.984375 70.914062 66.8125 70.546875 67.761719 C 70.410156 68.105469 70.84375 68.363281 71.042969 68.050781 C 72.222656 66.199219 73.652344 64.167969 75.914062 63.625 C 76.199219 63.558594 76.472656 63.484375 76.710938 63.304688 C 76.953125 63.117188 77.132812 62.855469 77.304688 62.605469 C 77.621094 62.15625 77.914062 61.65625 78.359375 61.324219 C 78.84375 60.964844 79.453125 60.871094 79.921875 60.476562 C 80.328125 60.128906 80.613281 59.652344 80.84375 59.175781 C 81.320312 58.1875 81.679688 56.738281 82.875 56.386719 C 83.230469 56.28125 83.078125 55.726562 82.722656 55.832031 Z M 82.722656 55.832031 " fill-opacity="1" fill-rule="nonzero"/><path fill="#facbce" d="M 90.085938 61.648438 C 89.851562 62.332031 89.496094 62.980469 89.03125 63.535156 C 88.5625 64.089844 87.992188 64.492188 87.425781 64.9375 C 87.144531 65.160156 86.882812 65.402344 86.671875 65.699219 C 86.453125 66.007812 86.3125 66.363281 86.171875 66.714844 C 85.882812 67.4375 85.480469 68.09375 84.996094 68.707031 C 83.144531 71.050781 80.804688 73.066406 78.300781 74.683594 C 76.894531 75.589844 75.414062 76.378906 73.875 77.035156 C 73.535156 77.183594 73.828125 77.675781 74.164062 77.535156 C 76.960938 76.339844 79.558594 74.710938 81.867188 72.730469 C 83.019531 71.742188 84.101562 70.664062 85.082031 69.503906 C 85.59375 68.898438 86.078125 68.257812 86.433594 67.542969 C 86.78125 66.839844 86.960938 66.105469 87.566406 65.566406 C 87.875 65.289062 88.222656 65.0625 88.550781 64.804688 C 88.871094 64.546875 89.171875 64.257812 89.4375 63.941406 C 89.96875 63.308594 90.375 62.585938 90.640625 61.800781 C 90.757812 61.449219 90.203125 61.296875 90.085938 61.648438 Z M 90.085938 61.648438 " fill-opacity="1" fill-rule="nonzero"/><path fill="#978b54" d="M 88.96875 78.421875 C 87.304688 79.902344 85.597656 81.402344 83.578125 82.382812 C 82.570312 82.871094 81.496094 83.1875 80.378906 83.3125 C 79.769531 83.378906 79.15625 83.425781 78.558594 83.554688 C 77.964844 83.6875 77.433594 83.941406 76.898438 84.226562 C 75.671875 84.871094 74.203125 85.285156 72.867188 84.863281 C 72.511719 84.75 72.585938 85.0625 72.9375 85.171875 C 74.109375 85.542969 75.320312 85.542969 76.457031 85.074219 C 77.042969 84.832031 77.574219 84.460938 78.175781 84.257812 C 78.765625 84.058594 79.378906 83.992188 79.992188 83.929688 C 81.171875 83.808594 82.28125 83.574219 83.371094 83.105469 C 84.4375 82.648438 85.425781 82.027344 86.359375 81.339844 C 87.410156 80.5625 88.398438 79.699219 89.375 78.828125 C 89.652344 78.582031 89.242188 78.175781 88.96875 78.421875 Z M 88.96875 78.421875 " fill-opacity="1" fill-rule="nonzero"/><path fill="#fde9ea" d="M 64.136719 74.53125 C 60.898438 72.542969 55.03125 68.863281 51.996094 66.574219 C 51.128906 65.921875 50.273438 65.257812 49.425781 64.582031 C 49.136719 64.351562 48.769531 64.796875 49.0625 65.027344 C 52.074219 67.429688 55.203125 69.6875 58.433594 71.789062 C 59.335938 72.378906 62.976562 74.488281 63.894531 75.054688 C 64.210938 75.25 64.445312 74.722656 64.136719 74.53125 Z M 64.136719 74.53125 " fill-opacity="1" fill-rule="nonzero"/><path fill="#978b54" d="M 82.621094 92.125 C 80.878906 92.921875 78.894531 92.585938 77.09375 92.203125 C 75.152344 91.789062 73.179688 91.34375 71.21875 91.90625 C 70.28125 92.175781 69.386719 92.582031 68.441406 92.828125 C 67.554688 93.054688 66.648438 93.167969 65.734375 93.222656 C 63.890625 93.324219 62.046875 93.175781 60.203125 93.152344 C 58.175781 93.125 56.113281 93.253906 54.21875 94.03125 C 53.992188 94.125 54.09375 94.496094 54.320312 94.402344 C 57.800781 92.972656 61.636719 93.75 65.28125 93.625 C 66.175781 93.59375 67.066406 93.511719 67.941406 93.332031 C 68.90625 93.140625 69.808594 92.78125 70.734375 92.464844 C 71.691406 92.136719 72.652344 91.96875 73.667969 92.023438 C 74.699219 92.074219 75.714844 92.296875 76.722656 92.515625 C 78.722656 92.945312 80.878906 93.34375 82.8125 92.457031 C 83.039062 92.351562 82.84375 92.023438 82.621094 92.125 Z M 82.621094 92.125 " fill-opacity="1" fill-rule="nonzero"/><path fill="#978b54" d="M 48.554688 51.019531 C 51.445312 51.90625 54.242188 53.113281 56.871094 54.621094 C 58.027344 55.285156 59.152344 56.007812 60.242188 56.78125 C 60.441406 56.925781 60.632812 56.589844 60.433594 56.449219 C 56.988281 53.996094 53.160156 52.085938 49.132812 50.796875 C 48.921875 50.871094 48.726562 50.945312 48.554688 51.019531 Z M 48.554688 51.019531 " fill-opacity="1" fill-rule="nonzero"/><path fill="#978b54" d="M 77.085938 50.996094 C 76.359375 53.273438 75.570312 55.527344 74.707031 57.757812 C 74.621094 57.988281 74.992188 58.089844 75.078125 57.859375 C 75.933594 55.644531 76.722656 53.398438 77.445312 51.132812 C 77.34375 51.09375 77.226562 51.046875 77.085938 50.996094 Z M 77.085938 50.996094 " fill-opacity="1" fill-rule="nonzero"/><path fill="#978b54" d="M 70.003906 48.777344 C 69.402344 49.625 68.699219 50.398438 67.898438 51.066406 C 67.707031 51.226562 67.980469 51.496094 68.167969 51.339844 C 69.011719 50.632812 69.746094 49.816406 70.367188 48.921875 C 70.222656 48.867188 70.097656 48.820312 70.003906 48.777344 Z M 70.003906 48.777344 " fill-opacity="1" fill-rule="nonzero"/><path fill="#978b54" d="M 69.367188 58.183594 C 68.8125 56.066406 68.195312 53.964844 67.507812 51.886719 C 67.429688 51.65625 67.0625 51.753906 67.136719 51.988281 C 67.804688 54.007812 68.40625 56.042969 68.949219 58.097656 C 68.441406 58.21875 67.9375 58.363281 67.445312 58.535156 C 67.347656 58.570312 67.285156 58.664062 67.3125 58.769531 C 67.339844 58.867188 67.449219 58.9375 67.546875 58.90625 C 68.074219 58.722656 68.605469 58.570312 69.148438 58.445312 C 69.167969 58.441406 69.1875 58.429688 69.207031 58.414062 C 69.308594 58.398438 69.402344 58.3125 69.367188 58.183594 Z M 69.367188 58.183594 " fill-opacity="1" fill-rule="nonzero"/><path fill="#978b54" d="M 67.011719 53.222656 C 67.019531 53.136719 67 53.050781 66.953125 52.984375 C 66.90625 52.910156 66.839844 52.855469 66.757812 52.828125 C 66.667969 52.804688 66.582031 52.816406 66.5 52.855469 C 66.433594 52.886719 66.378906 52.941406 66.339844 53.003906 C 66.300781 53.070312 66.277344 53.152344 66.28125 53.230469 C 66.292969 53.394531 66.378906 53.546875 66.511719 53.640625 C 66.660156 53.75 66.875 53.707031 66.964844 53.542969 C 67.019531 53.445312 67.027344 53.332031 67.011719 53.222656 Z M 67.011719 53.222656 " fill-opacity="1" fill-rule="nonzero"/><path fill="#978b54" d="M 67.976562 56.726562 C 67.9375 56.664062 67.886719 56.605469 67.828125 56.558594 C 67.769531 56.511719 67.707031 56.472656 67.625 56.472656 C 67.546875 56.476562 67.480469 56.519531 67.429688 56.578125 C 67.351562 56.675781 67.289062 56.785156 67.308594 56.914062 C 67.316406 56.964844 67.335938 57.007812 67.359375 57.050781 C 67.375 57.15625 67.410156 57.25 67.480469 57.332031 C 67.5625 57.421875 67.6875 57.464844 67.804688 57.433594 C 67.914062 57.402344 67.992188 57.308594 68.035156 57.207031 C 68.101562 57.050781 68.066406 56.867188 67.976562 56.726562 Z M 67.976562 56.726562 " fill-opacity="1" fill-rule="nonzero"/><path fill="#978b54" d="M 66.5 51.304688 C 65.632812 51.058594 64.757812 50.832031 63.898438 50.5625 C 63.054688 50.296875 62.25 49.933594 61.472656 49.507812 C 60.683594 49.074219 59.933594 48.582031 59.222656 48.035156 C 59.109375 48.097656 58.980469 48.160156 58.835938 48.21875 C 59.605469 48.824219 60.421875 49.367188 61.277344 49.839844 C 62.042969 50.257812 62.835938 50.621094 63.667969 50.890625 C 64.570312 51.179688 65.488281 51.417969 66.398438 51.675781 C 66.636719 51.742188 66.738281 51.371094 66.5 51.304688 Z M 66.5 51.304688 " fill-opacity="1" fill-rule="nonzero"/><path fill="#4a3333" d="M 68.917969 33.53125 C 68.878906 33.386719 68.710938 33.28125 68.5625 33.332031 C 67.6875 33.625 66.882812 34.070312 66.167969 34.652344 C 66.046875 34.75 66.066406 34.957031 66.167969 35.058594 C 66.289062 35.175781 66.453125 35.15625 66.574219 35.058594 C 67.210938 34.542969 67.941406 34.144531 68.714844 33.886719 C 68.863281 33.835938 68.960938 33.6875 68.917969 33.53125 Z M 68.917969 33.53125 " fill-opacity="1" fill-rule="nonzero"/><path fill="#d15c48" d="M 73.441406 34.65625 L 73.445312 34.660156 C 73.476562 34.683594 73.46875 34.671875 73.441406 34.65625 Z M 73.441406 34.65625 " fill-opacity="1" fill-rule="nonzero"/><path fill="#4a3333" d="M 74.296875 35.121094 C 74.246094 35.101562 74.199219 35.085938 74.148438 35.066406 C 74.140625 35.0625 74.128906 35.058594 74.117188 35.054688 C 74.09375 35.042969 74.070312 35.03125 74.046875 35.023438 C 73.953125 34.976562 73.855469 34.925781 73.765625 34.875 C 73.675781 34.820312 73.585938 34.761719 73.503906 34.703125 C 73.484375 34.6875 73.460938 34.667969 73.441406 34.65625 C 73.433594 34.648438 73.425781 34.640625 73.414062 34.636719 C 73.371094 34.601562 73.328125 34.5625 73.289062 34.527344 C 73.175781 34.425781 72.992188 34.410156 72.882812 34.527344 C 72.78125 34.636719 72.761719 34.828125 72.882812 34.933594 C 73.25 35.265625 73.675781 35.511719 74.144531 35.675781 C 74.285156 35.722656 74.464844 35.617188 74.496094 35.472656 C 74.535156 35.3125 74.449219 35.171875 74.296875 35.121094 Z M 74.296875 35.121094 " fill-opacity="1" fill-rule="nonzero"/><path fill="#ffffff" d="M 70.605469 41.734375 C 70.570312 41.46875 70.289062 41.386719 70.0625 41.4375 C 69.902344 41.46875 69.574219 41.601562 69.257812 41.835938 C 68.929688 42.074219 68.617188 42.441406 68.492188 42.839844 C 68.449219 42.980469 68.582031 43.132812 68.820312 43.144531 C 70.105469 43.214844 70.054688 42.617188 70.300781 42.320312 C 70.4375 42.152344 70.636719 41.96875 70.605469 41.734375 Z M 70.605469 41.734375 " fill-opacity="1" fill-rule="nonzero"/></svg>