<svg xmlns="http://www.w3.org/2000/svg" xmlns:xlink="http://www.w3.org/1999/xlink" width="300" zoomAndPan="magnify" viewBox="0 0 224.87999 225" height="300" preserveAspectRatio="xMidYMid meet" version="1.0"><defs><clipPath id="ad617bc4f4"><path d="M 22.488281 86 L 202.390625 86 L 202.390625 199 L 22.488281 199 Z M 22.488281 86 " clip-rule="nonzero"/></clipPath></defs><path fill="#fdee22" d="M 85.191406 79.242188 C 85.191406 79.242188 74.003906 76.796875 69.503906 61.867188 C 65.007812 46.9375 75.441406 38.554688 80.910156 36.363281 C 80.910156 36.363281 74.46875 35.859375 72.527344 33.554688 C 70.585938 31.253906 79.828125 33.554688 79.828125 33.554688 C 79.828125 33.554688 82.058594 25.171875 85.191406 25.675781 L 85.191406 33.339844 C 85.191406 33.339844 92.203125 29.203125 97.925781 31.289062 C 103.644531 33.375 117.710938 42.585938 115.765625 62.296875 Z M 85.191406 79.242188 " fill-opacity="1" fill-rule="nonzero"/><g clip-path="url(#ad617bc4f4)"><path fill="#a69fcb" d="M 22.488281 188.53125 C 22.488281 188.53125 35.546875 148.886719 44.648438 133.851562 C 53.75 118.8125 58.246094 112.625 75.910156 111.1875 C 93.570312 109.746094 94.363281 109.566406 94.363281 109.566406 L 92.78125 86.902344 C 92.78125 86.902344 103.933594 90.320312 110.730469 89.207031 L 117.351562 104.242188 L 131.777344 97.265625 C 131.777344 97.265625 146.992188 89.496094 155.265625 101.472656 C 163.539062 113.453125 202.390625 172.414062 202.390625 172.414062 C 202.390625 172.414062 175.914062 196.226562 129.292969 198.027344 C 82.671875 199.824219 22.488281 188.53125 22.488281 188.53125 Z M 22.488281 188.53125 " fill-opacity="1" fill-rule="nonzero"/></g><path fill="#f9c2af" d="M 112.421875 123.921875 L 103.03125 93.164062 C 103.03125 93.164062 93.535156 92.949219 89.542969 87.226562 C 85.550781 81.507812 83.824219 75.464844 83.824219 75.464844 C 83.824219 75.464844 76.160156 76.183594 75.945312 69.386719 C 75.730469 62.585938 80.441406 63.664062 80.441406 63.664062 C 80.441406 63.664062 79.21875 61.613281 79.363281 58.089844 C 79.363281 58.089844 79.363281 55.425781 82.167969 57.585938 C 84.972656 59.78125 83.644531 58.449219 84.21875 53.953125 C 84.792969 49.457031 89.183594 47.046875 90.65625 48.84375 C 92.132812 50.679688 93.210938 54.671875 93.320312 47.371094 C 93.429688 40.066406 96.84375 46.398438 98.535156 49.3125 C 100.226562 52.226562 102.925781 56.363281 103.394531 52.117188 C 103.894531 47.871094 105.226562 42.871094 108.96875 49.3125 C 112.746094 55.75 122.925781 72.515625 118.320312 83.917969 C 118.320312 83.917969 119.90625 86.941406 120.15625 89.855469 C 120.40625 92.769531 136.308594 120.324219 136.308594 120.324219 C 136.308594 120.324219 127.53125 127.195312 112.421875 123.921875 Z M 112.421875 123.921875 " fill-opacity="1" fill-rule="nonzero"/><path fill="#000000" d="M 103.175781 61.867188 C 103.175781 61.832031 103.175781 61.832031 103.175781 61.867188 Z M 102.027344 61.292969 C 102.0625 61.292969 102.097656 61.292969 102.097656 61.292969 C 102.097656 61.292969 102.0625 61.292969 102.027344 61.292969 Z M 102.996094 61.433594 C 102.996094 61.433594 102.996094 61.472656 103.03125 61.472656 C 103.03125 61.472656 103.03125 61.433594 102.996094 61.433594 Z M 100.335938 61.832031 C 100.226562 61.867188 100.117188 61.9375 100.046875 61.972656 C 99.652344 62.191406 99.183594 62.082031 98.933594 61.6875 C 98.714844 61.328125 98.859375 60.789062 99.21875 60.570312 C 99.757812 60.285156 100.335938 60.066406 100.910156 59.886719 C 101.738281 59.636719 102.710938 59.492188 103.535156 59.851562 C 104.652344 60.320312 104.976562 61.578125 104.832031 62.695312 C 104.617188 64.386719 103.320312 65.859375 101.953125 66.757812 C 101.558594 67.011719 101.089844 66.832031 100.839844 66.472656 C 100.585938 66.074219 100.765625 65.609375 101.125 65.355469 C 101.164062 65.320312 101.199219 65.320312 101.234375 65.285156 C 101.269531 65.25 101.304688 65.210938 101.34375 65.175781 C 101.304688 65.175781 101.304688 65.210938 101.269531 65.210938 C 101.304688 65.210938 101.304688 65.175781 101.34375 65.175781 C 101.414062 65.140625 101.378906 65.140625 101.34375 65.175781 C 101.34375 65.175781 101.34375 65.175781 101.378906 65.175781 C 101.703125 64.925781 101.988281 64.671875 102.242188 64.347656 C 102.3125 64.277344 102.386719 64.167969 102.457031 64.097656 C 102.457031 64.0625 102.492188 64.0625 102.492188 64.023438 C 102.566406 63.953125 102.457031 64.097656 102.457031 64.097656 C 102.492188 64.097656 102.527344 63.988281 102.566406 63.953125 C 102.710938 63.773438 102.816406 63.558594 102.925781 63.378906 C 102.960938 63.304688 102.996094 63.269531 102.996094 63.199219 C 102.996094 63.160156 103.03125 63.160156 103.03125 63.125 C 103.070312 63.054688 102.996094 63.199219 102.996094 63.199219 C 103.070312 63.125 103.070312 62.945312 103.105469 62.875 C 103.140625 62.765625 103.175781 62.621094 103.175781 62.515625 C 103.175781 62.441406 103.175781 62.40625 103.175781 62.335938 C 103.175781 62.191406 103.175781 62.082031 103.175781 61.9375 C 103.175781 61.902344 103.175781 61.902344 103.175781 61.867188 C 103.175781 61.867188 103.175781 61.867188 103.175781 61.902344 C 103.175781 61.867188 103.175781 61.792969 103.140625 61.757812 C 103.140625 61.722656 103.105469 61.652344 103.105469 61.613281 C 103.070312 61.578125 103.03125 61.507812 102.996094 61.472656 C 103.03125 61.507812 103.070312 61.507812 102.996094 61.433594 C 102.996094 61.433594 102.996094 61.433594 102.996094 61.398438 L 102.960938 61.363281 C 102.925781 61.363281 102.925781 61.328125 102.890625 61.328125 C 102.851562 61.328125 102.851562 61.292969 102.816406 61.292969 C 102.746094 61.253906 102.671875 61.253906 102.601562 61.253906 C 102.566406 61.253906 102.527344 61.253906 102.492188 61.253906 C 102.421875 61.253906 102.3125 61.253906 102.242188 61.253906 C 102.167969 61.253906 102.132812 61.253906 102.0625 61.292969 C 102.097656 61.292969 102.097656 61.292969 102.027344 61.292969 C 102.027344 61.292969 102.027344 61.292969 101.988281 61.292969 C 101.988281 61.292969 101.988281 61.292969 101.953125 61.292969 C 101.917969 61.292969 101.882812 61.292969 101.847656 61.292969 C 101.484375 61.363281 101.164062 61.472656 100.839844 61.578125 C 100.695312 61.613281 100.550781 61.6875 100.40625 61.722656 C 100.40625 61.722656 100.371094 61.722656 100.371094 61.757812 C 100.40625 61.792969 100.371094 61.832031 100.335938 61.832031 Z M 103.210938 62.441406 Z M 101.304688 65.210938 C 101.304688 65.210938 101.304688 65.175781 101.304688 65.210938 Z M 77.277344 140.828125 C 76.808594 140.828125 76.519531 141.1875 76.484375 141.621094 C 76.304688 143.3125 76.089844 144.964844 75.910156 146.65625 C 75.441406 150.648438 75.007812 154.640625 74.542969 158.636719 C 74.003906 163.457031 73.460938 168.277344 72.886719 173.097656 C 72.417969 177.269531 71.953125 181.441406 71.449219 185.652344 C 71.304688 187.019531 71.125 188.421875 70.980469 189.789062 C 70.910156 190.4375 70.800781 191.082031 70.765625 191.730469 C 70.765625 191.765625 70.765625 191.804688 70.765625 191.804688 C 70.730469 192.234375 71.160156 192.59375 71.554688 192.59375 C 72.023438 192.59375 72.3125 192.234375 72.347656 191.804688 C 72.527344 190.113281 72.742188 188.457031 72.921875 186.765625 C 73.390625 182.773438 73.824219 178.78125 74.289062 174.789062 C 74.828125 169.96875 75.371094 165.148438 75.945312 160.328125 C 76.414062 156.152344 76.878906 151.980469 77.382812 147.773438 C 77.527344 146.40625 77.707031 145 77.851562 143.632812 C 77.921875 142.988281 78.03125 142.339844 78.066406 141.691406 C 78.066406 141.65625 78.066406 141.621094 78.066406 141.621094 C 78.101562 141.222656 77.671875 140.828125 77.277344 140.828125 Z M 169.476562 180.183594 C 169.402344 180.039062 169.332031 179.933594 169.261719 179.789062 C 167.820312 177.269531 166.417969 174.75 164.980469 172.234375 C 162.894531 168.527344 160.804688 164.785156 158.683594 161.082031 C 157.425781 158.851562 156.203125 156.65625 154.941406 154.425781 C 154.332031 153.347656 153.71875 152.304688 153.109375 151.261719 C 151.308594 148.167969 149.546875 145.039062 147.75 141.90625 C 145.335938 137.734375 142.925781 133.527344 140.554688 129.351562 C 138.144531 125.144531 135.734375 120.933594 133.324219 116.726562 C 131.523438 113.5625 129.6875 110.394531 127.890625 107.195312 C 124.832031 101.761719 122.207031 96.078125 119.832031 90.285156 C 119.078125 88.414062 118.359375 86.542969 117.675781 84.636719 C 117.496094 84.097656 117.3125 83.667969 116.847656 83.308594 C 116.308594 82.910156 115.730469 82.945312 115.265625 83.128906 C 114.867188 83.269531 114.363281 82.945312 114.257812 82.550781 C 113.71875 80.679688 113.070312 78.847656 112.277344 77.046875 C 111.738281 75.824219 111.164062 74.636719 110.40625 73.558594 C 110.121094 73.125 109.796875 72.730469 109.398438 72.371094 C 109.113281 72.117188 108.789062 71.867188 108.464844 71.796875 C 108.394531 71.796875 108.355469 71.757812 108.285156 71.757812 L 108.25 71.757812 C 108.214844 71.757812 108.070312 71.757812 108.070312 71.757812 C 107.996094 71.757812 107.960938 71.796875 107.890625 71.796875 C 107.851562 71.796875 107.78125 71.832031 107.78125 71.867188 C 107.710938 71.9375 107.816406 71.796875 107.710938 71.9375 C 107.746094 71.902344 107.710938 71.902344 107.671875 72.011719 C 107.636719 72.082031 107.636719 72.117188 107.601562 72.117188 C 107.566406 72.226562 107.53125 72.335938 107.53125 72.40625 C 107.53125 72.480469 107.492188 72.515625 107.492188 72.585938 C 107.492188 72.695312 107.457031 72.800781 107.457031 72.910156 C 107.457031 73.164062 107.457031 73.378906 107.457031 73.628906 C 107.492188 74.167969 107.566406 74.636719 107.710938 75.210938 C 107.960938 76.4375 108.355469 77.660156 108.789062 78.847656 C 108.96875 79.386719 109.183594 79.890625 109.363281 80.429688 C 109.472656 80.679688 109.542969 80.933594 109.652344 81.148438 C 109.6875 81.257812 109.722656 81.328125 109.761719 81.4375 C 109.832031 81.617188 109.796875 81.472656 109.796875 81.542969 C 110.335938 82.839844 110.804688 84.171875 111.234375 85.5 C 111.523438 86.363281 110.15625 86.941406 109.761719 86.113281 C 109.507812 85.574219 109.21875 85.070312 108.898438 84.566406 C 108.679688 84.207031 108.429688 83.847656 108.105469 83.558594 C 107.996094 83.449219 107.925781 83.378906 107.816406 83.308594 C 107.816406 83.378906 107.816406 83.414062 107.816406 83.449219 C 107.851562 83.847656 107.996094 84.277344 108.105469 84.636719 C 108.285156 85.214844 108.464844 85.609375 108.679688 86.113281 C 109.113281 87.046875 107.78125 87.839844 107.277344 86.941406 C 107.027344 86.472656 106.703125 86.003906 106.34375 85.609375 C 106.089844 85.320312 105.804688 85.035156 105.441406 84.855469 C 105.441406 84.855469 105.191406 84.78125 105.261719 84.816406 C 105.226562 84.816406 105.191406 84.816406 105.191406 84.816406 C 105.191406 84.816406 105.15625 84.925781 105.15625 85.035156 C 105.15625 85.175781 105.191406 85.285156 105.226562 85.429688 C 105.300781 85.789062 105.441406 86.148438 105.585938 86.472656 C 105.804688 86.902344 106.019531 87.335938 106.269531 87.769531 C 106.808594 88.667969 105.40625 89.457031 104.867188 88.59375 C 104.398438 87.804688 103.859375 86.976562 103.140625 86.402344 C 103.070312 86.328125 102.996094 86.292969 102.925781 86.257812 C 102.890625 86.222656 102.746094 86.148438 102.671875 86.113281 C 102.636719 86.113281 102.527344 86.078125 102.527344 86.078125 C 102.527344 86.078125 102.566406 86.078125 102.527344 86.078125 C 102.386719 86.113281 102.492188 86.078125 102.566406 86.078125 C 102.527344 86.113281 102.527344 86.148438 102.527344 86.113281 C 102.277344 86.472656 102.242188 86.976562 102.242188 87.480469 C 102.277344 88.8125 102.710938 90.140625 103.175781 91.363281 C 103.285156 91.617188 103.355469 91.867188 103.464844 92.121094 C 103.464844 92.15625 103.535156 92.265625 103.535156 92.300781 C 103.574219 92.335938 103.574219 92.371094 103.609375 92.445312 C 103.679688 92.589844 103.714844 92.695312 103.789062 92.839844 C 103.824219 92.949219 103.859375 93.019531 103.894531 93.128906 C 104.4375 94.746094 104.976562 96.367188 105.515625 98.019531 C 106.59375 101.257812 107.636719 104.53125 108.714844 107.769531 C 110.15625 112.15625 111.59375 116.546875 113.035156 120.933594 C 114.6875 125.972656 116.34375 131.007812 117.996094 136.007812 C 119.726562 141.222656 121.414062 146.441406 123.140625 151.65625 C 124.761719 156.550781 126.378906 161.441406 127.960938 166.371094 C 129.292969 170.472656 130.660156 174.535156 131.992188 178.636719 C 132.925781 181.441406 133.863281 184.285156 134.761719 187.089844 C 135.121094 188.132812 135.445312 189.175781 135.804688 190.21875 C 136.128906 191.226562 134.582031 191.625 134.257812 190.652344 C 134.222656 190.582031 134.222656 190.507812 134.1875 190.4375 C 133.644531 188.851562 133.144531 187.304688 132.640625 185.722656 C 131.558594 182.484375 130.515625 179.25 129.4375 175.976562 C 127.960938 171.550781 126.523438 167.089844 125.046875 162.664062 C 123.359375 157.554688 121.667969 152.414062 120.011719 147.304688 C 118.285156 142.015625 116.523438 136.726562 114.796875 131.441406 C 113.175781 126.476562 111.523438 121.546875 109.902344 116.582031 C 108.535156 112.480469 107.207031 108.34375 105.839844 104.242188 C 104.941406 101.472656 104.003906 98.703125 103.105469 95.96875 C 102.851562 95.25 102.636719 94.53125 102.386719 93.8125 C 102.3125 93.632812 102.277344 93.488281 102.207031 93.308594 C 102.207031 93.273438 102.167969 93.234375 102.167969 93.199219 C 102.242188 93.558594 102.167969 93.234375 102.097656 93.054688 C 101.628906 91.941406 101.199219 90.789062 100.910156 89.601562 C 100.585938 88.308594 100.335938 86.761719 100.945312 85.539062 C 101.34375 84.710938 102.097656 84.277344 102.996094 84.492188 C 103.175781 84.53125 103.394531 84.601562 103.574219 84.710938 C 103.609375 84.3125 103.789062 83.917969 104.113281 83.628906 C 104.722656 83.054688 105.480469 83.089844 106.164062 83.414062 C 106.125 82.660156 106.34375 81.976562 107.0625 81.652344 C 107.421875 81.507812 107.746094 81.472656 108.070312 81.582031 C 107.996094 81.4375 107.925781 81.257812 107.890625 81.113281 C 106.953125 78.738281 106.019531 76.21875 105.804688 73.664062 C 105.730469 72.660156 105.804688 71.472656 106.523438 70.714844 C 107.3125 69.925781 108.535156 69.925781 109.472656 70.429688 C 110.550781 70.96875 111.34375 72.011719 111.992188 73.019531 C 112.78125 74.207031 113.355469 75.5 113.933594 76.796875 C 114.542969 78.269531 115.121094 79.78125 115.585938 81.328125 C 116.054688 81.292969 116.523438 81.363281 116.917969 81.507812 C 118.609375 82.082031 119.078125 83.738281 119.617188 85.214844 C 120.480469 87.550781 121.414062 89.890625 122.386719 92.226562 C 124.617188 97.515625 127.171875 102.625 130.011719 107.625 C 131.992188 111.113281 133.96875 114.605469 135.949219 118.058594 C 138.394531 122.375 140.878906 126.65625 143.359375 130.972656 C 145.699219 135.074219 148.070312 139.175781 150.410156 143.238281 C 152.027344 146.042969 153.613281 148.816406 155.230469 151.621094 C 155.734375 152.484375 156.238281 153.347656 156.707031 154.210938 C 158.289062 157.015625 159.871094 159.824219 161.417969 162.59375 C 163.503906 166.296875 165.589844 170.003906 167.675781 173.707031 C 168.71875 175.542969 169.765625 177.414062 170.808594 179.25 C 171.382812 180.292969 169.980469 181.082031 169.476562 180.183594 Z M 102.671875 86.183594 C 102.671875 86.183594 102.636719 86.183594 102.671875 86.183594 C 102.636719 86.183594 102.636719 86.222656 102.671875 86.183594 C 102.636719 86.183594 102.636719 86.183594 102.636719 86.183594 C 102.960938 86.148438 102.671875 86.113281 102.671875 86.183594 Z M 107.890625 83.234375 C 107.960938 83.199219 107.851562 83.089844 107.890625 83.234375 Z M 102.601562 86.222656 Z M 83.535156 70.789062 C 83.679688 71.183594 83.390625 71.722656 82.960938 71.796875 C 82.421875 71.902344 81.84375 71.976562 81.304688 71.976562 C 79.828125 72.082031 77.347656 71.9375 77.058594 70.03125 C 76.988281 69.386719 77.167969 68.703125 77.417969 68.125 C 77.636719 67.621094 77.960938 67.191406 78.425781 66.902344 C 78.894531 66.578125 79.542969 66.472656 80.117188 66.613281 C 80.550781 66.722656 80.765625 67.191406 80.691406 67.621094 C 80.585938 68.019531 80.152344 68.269531 79.757812 68.199219 C 79.6875 68.199219 79.613281 68.199219 79.542969 68.199219 L 79.507812 68.199219 C 79.46875 68.199219 79.46875 68.199219 79.433594 68.234375 C 79.433594 68.234375 79.46875 68.234375 79.46875 68.199219 C 79.46875 68.199219 79.433594 68.199219 79.433594 68.234375 C 79.433594 68.234375 79.433594 68.234375 79.398438 68.234375 C 79.289062 68.269531 79.363281 68.269531 79.433594 68.234375 C 79.398438 68.269531 79.328125 68.304688 79.253906 68.34375 C 79.21875 68.378906 79.183594 68.414062 79.144531 68.414062 C 79.109375 68.449219 79.074219 68.484375 79.074219 68.523438 C 79.039062 68.59375 78.964844 68.703125 78.929688 68.773438 C 78.929688 68.808594 78.859375 68.917969 78.859375 68.917969 C 78.859375 68.953125 78.824219 68.988281 78.824219 68.988281 C 78.785156 69.132812 78.75 69.242188 78.714844 69.386719 C 78.679688 69.457031 78.679688 69.566406 78.679688 69.636719 C 78.679688 69.707031 78.679688 69.78125 78.679688 69.851562 C 78.679688 69.890625 78.679688 69.890625 78.679688 69.925781 C 78.679688 69.925781 78.714844 69.960938 78.714844 69.996094 C 78.75 70.03125 78.785156 70.070312 78.785156 70.070312 C 78.824219 70.070312 78.824219 70.105469 78.859375 70.105469 C 78.929688 70.140625 78.964844 70.175781 79.039062 70.210938 C 79.074219 70.210938 79.074219 70.25 79.109375 70.25 C 79.183594 70.285156 79.253906 70.285156 79.328125 70.320312 C 79.398438 70.355469 79.507812 70.355469 79.578125 70.390625 C 79.613281 70.390625 79.648438 70.390625 79.6875 70.429688 L 79.722656 70.429688 C 79.757812 70.429688 79.757812 70.429688 79.757812 70.429688 C 79.792969 70.429688 79.828125 70.429688 79.867188 70.429688 C 79.972656 70.429688 80.046875 70.429688 80.152344 70.464844 C 80.332031 70.464844 80.511719 70.464844 80.691406 70.464844 C 81.015625 70.464844 81.339844 70.429688 81.699219 70.429688 C 81.84375 70.429688 81.953125 70.390625 82.097656 70.390625 L 82.132812 70.390625 C 82.167969 70.390625 82.203125 70.390625 82.203125 70.390625 C 82.3125 70.390625 82.382812 70.355469 82.492188 70.355469 C 82.996094 70.140625 83.390625 70.320312 83.535156 70.789062 Z M 78.714844 69.890625 L 78.679688 69.851562 C 78.714844 69.851562 78.714844 69.851562 78.714844 69.890625 Z M 78.75 69.925781 C 78.75 69.925781 78.714844 69.890625 78.75 69.925781 C 78.714844 69.890625 78.714844 69.890625 78.75 69.925781 Z M 78.75 69.960938 Z M 79.46875 68.199219 Z M 103.5 71.039062 C 103.5 71.039062 103.5 71.039062 103.574219 71.003906 C 103.535156 71.039062 103.535156 71.039062 103.5 71.039062 Z M 101.808594 75.140625 C 101.808594 74.960938 101.808594 74.746094 101.808594 74.566406 C 101.808594 74.492188 101.808594 74.386719 101.847656 74.3125 C 101.847656 74.3125 101.847656 74.3125 101.847656 74.347656 C 101.847656 74.277344 101.847656 74.242188 101.882812 74.167969 C 101.917969 73.917969 101.988281 73.664062 102.027344 73.414062 C 102.0625 73.269531 102.097656 73.164062 102.132812 73.019531 C 102.167969 72.945312 102.167969 72.875 102.207031 72.800781 C 102.207031 72.765625 102.242188 72.730469 102.242188 72.695312 C 102.386719 72.40625 102.527344 72.117188 102.710938 71.867188 C 102.746094 71.796875 102.816406 71.722656 102.851562 71.6875 C 102.746094 71.867188 102.851562 71.6875 102.925781 71.617188 C 103.03125 71.472656 103.140625 71.363281 103.285156 71.253906 C 103.355469 71.183594 103.429688 71.148438 103.464844 71.074219 L 103.535156 71.003906 C 103.535156 71.003906 103.574219 71.003906 103.574219 70.96875 C 103.574219 70.96875 103.574219 70.96875 103.535156 71.003906 C 103.714844 70.894531 103.859375 70.789062 104.039062 70.679688 C 104.148438 70.609375 104.257812 70.570312 104.363281 70.535156 C 104.398438 70.535156 104.4375 70.5 104.472656 70.5 C 104.257812 70.609375 104.507812 70.464844 104.578125 70.464844 C 104.796875 70.390625 105.046875 70.320312 105.261719 70.25 C 105.40625 70.210938 105.550781 70.175781 105.660156 70.175781 C 105.695312 70.175781 105.765625 70.175781 105.804688 70.140625 C 105.839844 70.140625 105.910156 70.140625 105.945312 70.140625 C 106.269531 70.105469 106.59375 70.105469 106.917969 70.105469 C 107.960938 70.105469 107.960938 68.484375 106.917969 68.484375 C 104.941406 68.484375 102.890625 69.0625 101.628906 70.679688 C 100.765625 71.757812 100.335938 73.054688 100.191406 74.421875 C 100.15625 74.671875 100.15625 74.925781 100.15625 75.210938 C 100.191406 75.644531 100.515625 76.003906 100.945312 76.003906 C 101.414062 75.96875 101.847656 75.609375 101.808594 75.140625 Z M 101.847656 74.3125 C 101.917969 74.0625 101.847656 74.242188 101.847656 74.3125 Z M 90.875 53.988281 C 90.875 53.59375 90.515625 53.125 90.082031 53.195312 C 88.210938 53.339844 86.484375 54.203125 84.902344 55.140625 C 83.96875 55.679688 83.066406 56.289062 82.238281 56.972656 C 81.917969 57.261719 81.953125 57.835938 82.238281 58.125 C 82.5625 58.449219 83.03125 58.414062 83.390625 58.125 L 83.425781 58.089844 C 83.605469 57.980469 83.75 57.835938 83.929688 57.730469 C 84.46875 57.332031 85.046875 56.9375 85.621094 56.613281 C 86.339844 56.183594 87.097656 55.75 87.886719 55.425781 C 88.535156 55.175781 89.472656 54.886719 90.082031 54.816406 C 90.476562 54.78125 90.875 54.457031 90.875 53.988281 Z M 99.542969 53.125 C 100.550781 52.621094 101.269531 52.332031 102.386719 51.972656 C 103.210938 51.6875 104.074219 51.433594 104.976562 51.253906 C 105.371094 51.183594 105.660156 51.148438 106.089844 51.109375 C 106.304688 51.109375 106.488281 51.109375 106.703125 51.109375 C 106.703125 51.109375 106.808594 51.109375 106.847656 51.109375 C 106.917969 51.109375 107.027344 51.148438 107.097656 51.183594 C 108.105469 51.433594 108.535156 49.886719 107.53125 49.636719 C 105.730469 49.203125 103.753906 49.78125 102.027344 50.355469 C 100.910156 50.75 99.796875 51.183594 98.714844 51.722656 C 97.78125 52.191406 98.609375 53.59375 99.542969 53.125 Z M 90.875 58.339844 C 90.191406 58.484375 89.832031 59.5625 90.082031 60.679688 C 90.335938 61.832031 91.125 62.621094 91.808594 62.441406 C 92.492188 62.296875 92.851562 61.21875 92.601562 60.105469 C 92.347656 58.988281 91.59375 58.199219 90.875 58.339844 Z M 106.847656 54.023438 C 106.164062 54.167969 105.804688 55.246094 106.054688 56.363281 C 106.304688 57.515625 107.097656 58.304688 107.78125 58.125 C 108.464844 57.980469 108.824219 56.902344 108.574219 55.785156 C 108.320312 54.636719 107.53125 53.84375 106.847656 54.023438 Z M 106.847656 54.023438 " fill-opacity="1" fill-rule="nonzero"/><path fill="#f3481a" d="M 112.960938 54.636719 C 110.839844 49.707031 102.457031 52.691406 101.808594 54.636719 C 101.808594 54.636719 97.925781 54.886719 96.84375 56.652344 C 96.84375 56.652344 93.03125 54.058594 89.328125 56.039062 C 85.585938 58.015625 84.613281 62.046875 84.613281 62.046875 L 79.902344 62.441406 L 80.40625 63.628906 L 84.21875 63.628906 C 84.21875 63.628906 84.542969 70.535156 92.707031 69.207031 C 100.875 67.875 97.492188 58.234375 97.492188 58.234375 C 97.492188 58.234375 97.207031 55.96875 100.980469 56.003906 C 100.980469 56.003906 102.925781 63.703125 108.5 63.199219 C 114.113281 62.730469 115.085938 59.601562 112.960938 54.636719 Z M 94.253906 67.335938 C 89.542969 68.988281 86.234375 67.800781 85.371094 63.917969 C 84.542969 60.03125 90.046875 56.578125 90.046875 56.578125 C 96.953125 53.449219 100.40625 65.175781 94.253906 67.335938 Z M 107.3125 62.335938 C 104.652344 60.96875 102.207031 57.550781 102.527344 55.785156 C 102.527344 55.785156 104.328125 52.296875 108.679688 52.945312 C 113.070312 53.59375 113.933594 58.628906 113.214844 59.421875 C 112.492188 60.246094 109.976562 63.703125 107.3125 62.335938 Z M 107.3125 62.335938 " fill-opacity="1" fill-rule="nonzero"/></svg>