<svg xmlns="http://www.w3.org/2000/svg" xmlns:xlink="http://www.w3.org/1999/xlink" width="100" zoomAndPan="magnify" viewBox="0 0 75 74.999997" height="100" preserveAspectRatio="xMidYMid meet" version="1.0"><defs><clipPath id="dfa2332793"><path d="M 2.578125 2.570312 L 72.421875 2.570312 L 72.421875 72.410156 L 2.578125 72.410156 Z M 2.578125 2.570312 " clip-rule="nonzero"/></clipPath><clipPath id="ca8c79d60d"><path d="M 2.578125 37.492188 C 2.578125 56.777344 18.214844 72.410156 37.5 72.410156 C 56.785156 72.410156 72.421875 56.777344 72.421875 37.492188 C 72.421875 18.203125 56.785156 2.570312 37.5 2.570312 C 18.214844 2.570312 2.578125 18.203125 2.578125 37.492188 Z M 2.578125 37.492188 " clip-rule="nonzero"/></clipPath><clipPath id="3cae38c3e9"><path d="M 19 18.828125 L 56.375 18.828125 L 56.375 56.328125 L 19 56.328125 Z M 19 18.828125 " clip-rule="nonzero"/></clipPath></defs><rect x="-7.5" width="90" fill="#ffffff" y="-7.5" height="89.999996" fill-opacity="1"/><rect x="-7.5" width="90" fill="#f4f4f4" y="-7.5" height="89.999996" fill-opacity="1"/><g clip-path="url(#dfa2332793)"><g clip-path="url(#ca8c79d60d)"><path fill="#ffffff" d="M 2.578125 72.410156 L 2.578125 2.570312 L 72.421875 2.570312 L 72.421875 72.410156 Z M 2.578125 72.410156 " fill-opacity="1" fill-rule="nonzero"/></g></g><g clip-path="url(#3cae38c3e9)"><path fill="#1ba553" d="M 37.613281 18.863281 C 27.199219 18.898438 18.878906 27.34375 19.015625 37.730469 C 19.039062 39.835938 19.414062 41.878906 20.136719 43.855469 C 20.859375 45.835938 21.890625 47.640625 23.230469 49.265625 C 23.445312 49.53125 23.566406 49.828125 23.59375 50.167969 C 23.625 50.503906 23.558594 50.820312 23.390625 51.113281 L 21.785156 53.988281 C 21.335938 54.785156 22.0625 55.726562 22.949219 55.503906 L 28.394531 54.121094 C 28.789062 54.019531 29.164062 54.058594 29.53125 54.234375 C 31.964844 55.417969 34.539062 56.035156 37.246094 56.09375 C 47.714844 56.332031 56.308594 47.984375 56.34375 37.539062 C 56.375 27.210938 47.972656 18.828125 37.613281 18.863281 Z M 37.675781 53.804688 C 37.140625 53.804688 36.605469 53.777344 36.074219 53.726562 C 35.539062 53.671875 35.011719 53.59375 34.484375 53.492188 C 33.960938 53.386719 33.441406 53.257812 32.925781 53.101562 C 32.414062 52.945312 31.910156 52.765625 31.414062 52.5625 C 30.921875 52.359375 30.4375 52.128906 29.964844 51.878906 C 29.492188 51.625 29.03125 51.351562 28.585938 51.054688 C 28.140625 50.757812 27.710938 50.4375 27.296875 50.101562 C 26.882812 49.761719 26.484375 49.402344 26.105469 49.023438 C 25.726562 48.644531 25.367188 48.25 25.027344 47.835938 C 24.6875 47.421875 24.367188 46.996094 24.070312 46.550781 C 23.773438 46.105469 23.5 45.648438 23.246094 45.175781 C 22.992188 44.703125 22.765625 44.222656 22.558594 43.726562 C 22.355469 43.234375 22.171875 42.730469 22.019531 42.21875 C 21.863281 41.707031 21.730469 41.191406 21.628906 40.664062 C 21.523438 40.140625 21.445312 39.613281 21.390625 39.082031 C 21.339844 38.550781 21.3125 38.015625 21.3125 37.480469 C 21.3125 28.464844 28.640625 21.15625 37.675781 21.15625 C 46.679688 21.15625 53.984375 28.410156 54.042969 37.375 C 54.097656 46.375 46.699219 53.804688 37.675781 53.804688 Z M 37.675781 53.804688 " fill-opacity="1" fill-rule="nonzero"/></g><path fill="#1ba553" d="M 34.753906 29.546875 L 34.761719 29.558594 L 35.738281 31.492188 C 35.953125 31.921875 36.019531 32.371094 35.933594 32.84375 C 35.851562 33.320312 35.628906 33.71875 35.277344 34.046875 C 34.925781 34.371094 34.707031 34.769531 34.621094 35.238281 C 34.535156 35.710938 34.597656 36.160156 34.8125 36.585938 C 35.398438 37.761719 36.414062 39.378906 37.960938 40.546875 C 38.316406 40.816406 38.71875 40.960938 39.164062 40.984375 C 39.609375 41.007812 40.023438 40.902344 40.402344 40.671875 L 41.03125 40.292969 C 41.636719 39.925781 42.265625 39.867188 42.929688 40.117188 L 45.425781 41.066406 C 45.695312 41.167969 45.933594 41.316406 46.144531 41.511719 C 46.351562 41.710938 46.515625 41.9375 46.632812 42.199219 C 46.75 42.460938 46.8125 42.734375 46.824219 43.023438 C 46.832031 43.308594 46.785156 43.585938 46.683594 43.855469 C 46.652344 43.929688 46.621094 44.003906 46.582031 44.078125 L 45.890625 45.417969 C 45.777344 45.632812 45.632812 45.828125 45.453125 45.996094 C 45.273438 46.164062 45.070312 46.296875 44.847656 46.398438 C 44.621094 46.5 44.386719 46.558594 44.140625 46.578125 C 43.898438 46.597656 43.65625 46.578125 43.417969 46.515625 C 39.492188 45.503906 30.140625 41.984375 29.386719 31.339844 C 29.355469 30.910156 29.449219 30.503906 29.660156 30.128906 C 29.875 29.75 30.171875 29.460938 30.558594 29.265625 L 31.832031 28.609375 C 32.089844 28.480469 32.359375 28.402344 32.648438 28.378906 C 32.933594 28.355469 33.214844 28.386719 33.488281 28.476562 C 33.761719 28.5625 34.007812 28.699219 34.226562 28.886719 C 34.445312 29.070312 34.621094 29.289062 34.753906 29.546875 Z M 34.753906 29.546875 " fill-opacity="1" fill-rule="nonzero"/></svg>