<svg xmlns="http://www.w3.org/2000/svg" xmlns:xlink="http://www.w3.org/1999/xlink" width="100" zoomAndPan="magnify" viewBox="0 0 75 74.999997" height="100" preserveAspectRatio="xMidYMid meet" version="1.0"><defs><clipPath id="4fa31a6e31"><path d="M 1.9375 1.929688 L 73.0625 1.929688 L 73.0625 73.058594 L 1.9375 73.058594 Z M 1.9375 1.929688 " clip-rule="nonzero"/></clipPath><clipPath id="9139a099ff"><path d="M 1.9375 37.492188 C 1.9375 57.132812 17.859375 73.058594 37.5 73.058594 C 57.140625 73.058594 73.0625 57.132812 73.0625 37.492188 C 73.0625 17.851562 57.140625 1.929688 37.5 1.929688 C 17.859375 1.929688 1.9375 17.851562 1.9375 37.492188 Z M 1.9375 37.492188 " clip-rule="nonzero"/></clipPath><clipPath id="bf78572c9b"><path d="M 18.535156 14.722656 L 56.785156 14.722656 L 56.785156 60.472656 L 18.535156 60.472656 Z M 18.535156 14.722656 " clip-rule="nonzero"/></clipPath></defs><rect x="-7.5" width="90" fill="#ffffff" y="-7.5" height="89.999996" fill-opacity="1"/><rect x="-7.5" width="90" fill="#f4f4f4" y="-7.5" height="89.999996" fill-opacity="1"/><g clip-path="url(#4fa31a6e31)"><g clip-path="url(#9139a099ff)"><path fill="#ffffff" d="M 1.9375 73.058594 L 1.9375 1.929688 L 73.0625 1.929688 L 73.0625 73.058594 Z M 1.9375 73.058594 " fill-opacity="1" fill-rule="nonzero"/></g></g><g clip-path="url(#bf78572c9b)"><path fill="#43e660" d="M 41.027344 25.882812 L 48.695312 18.035156 L 53.144531 22.570312 L 45.105469 30.207031 L 56.417969 30.207031 L 56.417969 36.503906 L 45.050781 36.503906 L 53.144531 44.335938 L 48.695312 48.785156 L 37.703125 37.789062 L 26.714844 48.785156 L 22.265625 44.355469 L 30.359375 36.523438 L 18.992188 36.523438 L 18.992188 30.207031 L 30.304688 30.207031 L 22.265625 22.570312 L 26.714844 18.035156 L 34.382812 25.882812 L 34.382812 14.722656 L 41.027344 14.722656 Z M 34.382812 45.527344 L 41.027344 45.527344 L 41.027344 60.476562 L 34.382812 60.476562 Z M 34.382812 45.527344 " fill-opacity="1" fill-rule="nonzero"/></g></svg>