<svg xmlns="http://www.w3.org/2000/svg" xmlns:xlink="http://www.w3.org/1999/xlink" width="100" zoomAndPan="magnify" viewBox="0 0 75 74.999997" height="100" preserveAspectRatio="xMidYMid meet" version="1.0"><defs><clipPath id="54855a1116"><path d="M 2.109375 2.109375 L 72.890625 2.109375 L 72.890625 72.890625 L 2.109375 72.890625 Z M 2.109375 2.109375 " clip-rule="nonzero"/></clipPath><clipPath id="e79d63adc1"><path d="M 2.109375 37.5 C 2.109375 57.046875 17.953125 72.890625 37.5 72.890625 C 57.046875 72.890625 72.890625 57.046875 72.890625 37.5 C 72.890625 17.953125 57.046875 2.109375 37.5 2.109375 C 17.953125 2.109375 2.109375 17.953125 2.109375 37.5 Z M 2.109375 37.5 " clip-rule="nonzero"/></clipPath><clipPath id="67f57b2db8"><path d="M 18.625 28.859375 L 56.125 28.859375 L 56.125 56.789062 L 18.625 56.789062 Z M 18.625 28.859375 " clip-rule="nonzero"/></clipPath><clipPath id="570ca4d4b4"><path d="M 18.625 20 L 56.125 20 L 56.125 28 L 18.625 28 Z M 18.625 20 " clip-rule="nonzero"/></clipPath><clipPath id="e075a3635d"><path d="M 18.625 27 L 56.125 27 L 56.125 56 L 18.625 56 Z M 18.625 27 " clip-rule="nonzero"/></clipPath><clipPath id="ee50a22227"><path d="M 21 18.554688 L 24 18.554688 L 24 26 L 21 26 Z M 21 18.554688 " clip-rule="nonzero"/></clipPath><clipPath id="7037b8fabb"><path d="M 23 18.554688 L 25 18.554688 L 25 26 L 23 26 Z M 23 18.554688 " clip-rule="nonzero"/></clipPath><clipPath id="fc572a2000"><path d="M 35 18.554688 L 37 18.554688 L 37 26 L 35 26 Z M 35 18.554688 " clip-rule="nonzero"/></clipPath><clipPath id="0750086564"><path d="M 36 18.554688 L 39 18.554688 L 39 26 L 36 26 Z M 36 18.554688 " clip-rule="nonzero"/></clipPath><clipPath id="7f5877eeaa"><path d="M 50 18.554688 L 52 18.554688 L 52 26 L 50 26 Z M 50 18.554688 " clip-rule="nonzero"/></clipPath><clipPath id="2835d96af6"><path d="M 51 18.554688 L 53 18.554688 L 53 26 L 51 26 Z M 51 18.554688 " clip-rule="nonzero"/></clipPath></defs><rect x="-7.5" width="90" fill="#ffffff" y="-7.5" height="89.999996" fill-opacity="1"/><rect x="-7.5" width="90" fill="#f4f4f4" y="-7.5" height="89.999996" fill-opacity="1"/><g clip-path="url(#54855a1116)"><g clip-path="url(#e79d63adc1)"><path fill="#ffffff" d="M 2.109375 72.890625 L 2.109375 2.109375 L 72.890625 2.109375 L 72.890625 72.890625 Z M 2.109375 72.890625 " fill-opacity="1" fill-rule="nonzero"/></g></g><g clip-path="url(#67f57b2db8)"><path fill="#cccccc" d="M 18.625 28.90625 L 18.625 54.464844 C 18.625 55.75 19.648438 56.789062 20.914062 56.789062 L 53.839844 56.789062 C 55.101562 56.789062 56.125 55.75 56.125 54.464844 L 56.125 28.90625 L 18.625 28.90625 " fill-opacity="1" fill-rule="nonzero"/></g><g clip-path="url(#570ca4d4b4)"><path fill="#ff4560" d="M 51.554688 26.117188 C 50.542969 26.117188 49.722656 25.285156 49.722656 24.257812 C 49.722656 23.230469 50.542969 22.398438 51.554688 22.398438 C 52.5625 22.398438 53.382812 23.230469 53.382812 24.257812 C 53.382812 25.285156 52.5625 26.117188 51.554688 26.117188 Z M 36.917969 26.117188 C 35.910156 26.117188 35.089844 25.285156 35.089844 24.257812 C 35.089844 23.230469 35.910156 22.398438 36.917969 22.398438 C 37.929688 22.398438 38.746094 23.230469 38.746094 24.257812 C 38.746094 25.285156 37.929688 26.117188 36.917969 26.117188 Z M 23.199219 26.117188 C 22.1875 26.117188 21.371094 25.285156 21.371094 24.257812 C 21.371094 23.230469 22.1875 22.398438 23.199219 22.398438 C 24.210938 22.398438 25.027344 23.230469 25.027344 24.257812 C 25.027344 25.285156 24.210938 26.117188 23.199219 26.117188 Z M 53.839844 20.539062 L 20.914062 20.539062 C 19.648438 20.539062 18.625 21.582031 18.625 22.863281 L 18.625 27.976562 L 56.125 27.976562 L 56.125 22.863281 C 56.125 21.582031 55.101562 20.539062 53.839844 20.539062 " fill-opacity="1" fill-rule="nonzero"/></g><g clip-path="url(#e075a3635d)"><path fill="#f2f1f6" d="M 18.625 27.976562 L 18.625 53.535156 C 18.625 54.820312 19.648438 55.859375 20.914062 55.859375 L 53.839844 55.859375 C 55.101562 55.859375 56.125 54.820312 56.125 53.535156 L 56.125 27.976562 L 18.625 27.976562 " fill-opacity="1" fill-rule="nonzero"/></g><path fill="#c63226" d="M 23.199219 26.117188 C 22.1875 26.117188 21.371094 25.285156 21.371094 24.257812 C 21.371094 23.230469 22.1875 22.398438 23.199219 22.398438 C 24.210938 22.398438 25.027344 23.230469 25.027344 24.257812 C 25.027344 25.285156 24.210938 26.117188 23.199219 26.117188 Z M 23.199219 21.46875 C 21.683594 21.46875 20.453125 22.71875 20.453125 24.257812 C 20.453125 25.800781 21.683594 27.046875 23.199219 27.046875 C 24.714844 27.046875 25.941406 25.800781 25.941406 24.257812 C 25.941406 22.71875 24.714844 21.46875 23.199219 21.46875 " fill-opacity="1" fill-rule="nonzero"/><path fill="#c63226" d="M 36.917969 26.117188 C 35.910156 26.117188 35.089844 25.285156 35.089844 24.257812 C 35.089844 23.230469 35.910156 22.398438 36.917969 22.398438 C 37.929688 22.398438 38.746094 23.230469 38.746094 24.257812 C 38.746094 25.285156 37.929688 26.117188 36.917969 26.117188 Z M 36.917969 21.46875 C 35.402344 21.46875 34.175781 22.71875 34.175781 24.257812 C 34.175781 25.800781 35.402344 27.046875 36.917969 27.046875 C 38.433594 27.046875 39.664062 25.800781 39.664062 24.257812 C 39.664062 22.71875 38.433594 21.46875 36.917969 21.46875 " fill-opacity="1" fill-rule="nonzero"/><path fill="#c63226" d="M 51.554688 26.117188 C 50.542969 26.117188 49.722656 25.285156 49.722656 24.257812 C 49.722656 23.230469 50.542969 22.398438 51.554688 22.398438 C 52.5625 22.398438 53.382812 23.230469 53.382812 24.257812 C 53.382812 25.285156 52.5625 26.117188 51.554688 26.117188 Z M 51.554688 21.46875 C 50.039062 21.46875 48.808594 22.71875 48.808594 24.257812 C 48.808594 25.800781 50.039062 27.046875 51.554688 27.046875 C 53.066406 27.046875 54.296875 25.800781 54.296875 24.257812 C 54.296875 22.71875 53.066406 21.46875 51.554688 21.46875 " fill-opacity="1" fill-rule="nonzero"/><g clip-path="url(#ee50a22227)"><path fill="#e6e6e6" d="M 21.792969 19.992188 L 21.792969 24.207031 C 21.792969 24.992188 22.417969 25.632812 23.195312 25.632812 L 23.195312 18.570312 C 22.417969 18.570312 21.792969 19.207031 21.792969 19.992188 " fill-opacity="1" fill-rule="nonzero"/></g><g clip-path="url(#7037b8fabb)"><path fill="#f2f2f2" d="M 23.195312 18.570312 L 23.195312 25.632812 C 23.96875 25.632812 24.597656 24.992188 24.597656 24.207031 L 24.597656 19.992188 C 24.597656 19.207031 23.96875 18.570312 23.195312 18.570312 " fill-opacity="1" fill-rule="nonzero"/></g><g clip-path="url(#fc572a2000)"><path fill="#e6e6e6" d="M 35.511719 19.992188 L 35.511719 24.207031 C 35.511719 24.992188 36.140625 25.632812 36.914062 25.632812 L 36.914062 18.570312 C 36.140625 18.570312 35.511719 19.207031 35.511719 19.992188 " fill-opacity="1" fill-rule="nonzero"/></g><g clip-path="url(#0750086564)"><path fill="#f2f2f2" d="M 36.914062 18.570312 L 36.914062 25.632812 C 37.6875 25.632812 38.316406 24.992188 38.316406 24.207031 L 38.316406 19.992188 C 38.316406 19.207031 37.6875 18.570312 36.914062 18.570312 " fill-opacity="1" fill-rule="nonzero"/></g><g clip-path="url(#7f5877eeaa)"><path fill="#e6e6e6" d="M 50.144531 19.992188 L 50.144531 24.207031 C 50.144531 24.992188 50.773438 25.632812 51.546875 25.632812 L 51.546875 18.570312 C 50.773438 18.570312 50.144531 19.207031 50.144531 19.992188 " fill-opacity="1" fill-rule="nonzero"/></g><g clip-path="url(#2835d96af6)"><path fill="#f2f2f2" d="M 51.546875 18.570312 L 51.546875 25.632812 C 52.320312 25.632812 52.949219 24.992188 52.949219 24.207031 L 52.949219 19.992188 C 52.949219 19.207031 52.320312 18.570312 51.546875 18.570312 " fill-opacity="1" fill-rule="nonzero"/></g><path fill="#cccccc" d="M 26.664062 35.796875 L 21.589844 35.796875 L 21.589844 31.730469 L 26.664062 31.730469 L 26.664062 35.796875 " fill-opacity="1" fill-rule="nonzero"/><path fill="#cccccc" d="M 33.097656 35.796875 L 28.019531 35.796875 L 28.019531 31.730469 L 33.097656 31.730469 L 33.097656 35.796875 " fill-opacity="1" fill-rule="nonzero"/><path fill="#cccccc" d="M 39.527344 35.796875 L 34.453125 35.796875 L 34.453125 31.730469 L 39.527344 31.730469 L 39.527344 35.796875 " fill-opacity="1" fill-rule="nonzero"/><path fill="#cccccc" d="M 45.960938 35.796875 L 40.886719 35.796875 L 40.886719 31.730469 L 45.960938 31.730469 L 45.960938 35.796875 " fill-opacity="1" fill-rule="nonzero"/><path fill="#cccccc" d="M 52.394531 35.796875 L 47.320312 35.796875 L 47.320312 31.730469 L 52.394531 31.730469 L 52.394531 35.796875 " fill-opacity="1" fill-rule="nonzero"/><path fill="#cccccc" d="M 26.664062 40.953125 L 21.589844 40.953125 L 21.589844 36.886719 L 26.664062 36.886719 L 26.664062 40.953125 " fill-opacity="1" fill-rule="nonzero"/><path fill="#cccccc" d="M 33.097656 40.953125 L 28.019531 40.953125 L 28.019531 36.886719 L 33.097656 36.886719 L 33.097656 40.953125 " fill-opacity="1" fill-rule="nonzero"/><path fill="#cccccc" d="M 39.527344 40.953125 L 34.453125 40.953125 L 34.453125 36.886719 L 39.527344 36.886719 L 39.527344 40.953125 " fill-opacity="1" fill-rule="nonzero"/><path fill="#cccccc" d="M 45.960938 40.953125 L 40.886719 40.953125 L 40.886719 36.886719 L 45.960938 36.886719 L 45.960938 40.953125 " fill-opacity="1" fill-rule="nonzero"/><path fill="#cccccc" d="M 52.394531 40.953125 L 47.320312 40.953125 L 47.320312 36.886719 L 52.394531 36.886719 L 52.394531 40.953125 " fill-opacity="1" fill-rule="nonzero"/><path fill="#cccccc" d="M 26.664062 46.109375 L 21.589844 46.109375 L 21.589844 42.042969 L 26.664062 42.042969 L 26.664062 46.109375 " fill-opacity="1" fill-rule="nonzero"/><path fill="#cccccc" d="M 33.097656 46.109375 L 28.019531 46.109375 L 28.019531 42.042969 L 33.097656 42.042969 L 33.097656 46.109375 " fill-opacity="1" fill-rule="nonzero"/><path fill="#cccccc" d="M 39.527344 46.109375 L 34.453125 46.109375 L 34.453125 42.042969 L 39.527344 42.042969 L 39.527344 46.109375 " fill-opacity="1" fill-rule="nonzero"/><path fill="#cccccc" d="M 45.960938 46.109375 L 40.886719 46.109375 L 40.886719 42.042969 L 45.960938 42.042969 L 45.960938 46.109375 " fill-opacity="1" fill-rule="nonzero"/><path fill="#cccccc" d="M 52.394531 46.109375 L 47.320312 46.109375 L 47.320312 42.042969 L 52.394531 42.042969 L 52.394531 46.109375 " fill-opacity="1" fill-rule="nonzero"/><path fill="#cccccc" d="M 26.664062 51.265625 L 21.589844 51.265625 L 21.589844 47.203125 L 26.664062 47.203125 L 26.664062 51.265625 " fill-opacity="1" fill-rule="nonzero"/><path fill="#cccccc" d="M 33.097656 51.265625 L 28.019531 51.265625 L 28.019531 47.203125 L 33.097656 47.203125 L 33.097656 51.265625 " fill-opacity="1" fill-rule="nonzero"/><path fill="#cccccc" d="M 39.527344 51.265625 L 34.453125 51.265625 L 34.453125 47.203125 L 39.527344 47.203125 L 39.527344 51.265625 " fill-opacity="1" fill-rule="nonzero"/><path fill="#cccccc" d="M 45.960938 51.265625 L 40.886719 51.265625 L 40.886719 47.203125 L 45.960938 47.203125 L 45.960938 51.265625 " fill-opacity="1" fill-rule="nonzero"/><path fill="#cccccc" d="M 52.394531 51.265625 L 47.320312 51.265625 L 47.320312 47.203125 L 52.394531 47.203125 L 52.394531 51.265625 " fill-opacity="1" fill-rule="nonzero"/><path fill="#ff4560" d="M 47.941406 35.605469 L 46.722656 34.367188 L 43.238281 37.910156 L 41.789062 36.4375 L 40.570312 37.675781 L 42.792969 39.90625 L 43.265625 40.359375 L 47.941406 35.605469 " fill-opacity="1" fill-rule="nonzero"/></svg>